<mxfile host="65bd71144e" pages="11">
    <diagram id="PnMAz4Zd65Ds89KP1M2y" name="atomics">
        <mxGraphModel dx="1369" dy="947" grid="1" gridSize="10" guides="1" tooltips="1" connect="1" arrows="1" fold="1" page="1" pageScale="1" pageWidth="850" pageHeight="1100" math="0" shadow="0">
            <root>
                <mxCell id="0"/>
                <mxCell id="1" parent="0"/>
                <mxCell id="gNKpG40JE7Ozd5AYdxcN-4" value="" style="ellipse;whiteSpace=wrap;html=1;aspect=fixed;fontSize=24;fillColor=#76608a;fontColor=#ffffff;strokeColor=none;" parent="1" vertex="1">
                    <mxGeometry x="400" y="160" width="120" height="120" as="geometry"/>
                </mxCell>
                <mxCell id="gNKpG40JE7Ozd5AYdxcN-5" value="" style="rhombus;whiteSpace=wrap;html=1;fontSize=24;fillColor=#e51400;fontColor=#ffffff;strokeColor=none;" parent="1" vertex="1">
                    <mxGeometry x="560" y="160" width="120" height="120" as="geometry"/>
                </mxCell>
                <mxCell id="hsy0RclScogfJ_RLo8gX-1" value="" style="strokeWidth=2;html=1;shape=mxgraph.flowchart.extract_or_measurement;whiteSpace=wrap;fontSize=24;strokeColor=none;fillColor=#008a00;fontColor=#ffffff;" parent="1" vertex="1">
                    <mxGeometry x="240" y="160" width="120" height="120" as="geometry"/>
                </mxCell>
                <mxCell id="hsy0RclScogfJ_RLo8gX-2" value="" style="rounded=1;whiteSpace=wrap;html=1;absoluteArcSize=1;arcSize=14;strokeWidth=2;fontSize=24;fillColor=#1ba1e2;fontColor=#ffffff;strokeColor=none;" parent="1" vertex="1">
                    <mxGeometry x="80" y="160" width="120" height="120" as="geometry"/>
                </mxCell>
                <mxCell id="hsy0RclScogfJ_RLo8gX-5" value="" style="rounded=1;whiteSpace=wrap;html=1;fontSize=24;fillColor=#fa6800;fontColor=#000000;strokeColor=none;" parent="1" vertex="1">
                    <mxGeometry x="720" y="200" width="120" height="40" as="geometry"/>
                </mxCell>
                <mxCell id="gIhM53mzPpSQSWPAt7gu-1" value="" style="shape=image;html=1;verticalAlign=top;verticalLabelPosition=bottom;labelBackgroundColor=#ffffff;imageAspect=0;aspect=fixed;image=https://cdn1.iconfinder.com/data/icons/social-media-2106/24/social_media_social_media_logo_git-128.png;dashed=1;strokeColor=#000000;strokeWidth=2;fillColor=none;fontSize=14;fontColor=#000000;align=center;" parent="1" vertex="1">
                    <mxGeometry x="80" y="300" width="128" height="128" as="geometry"/>
                </mxCell>
            </root>
        </mxGraphModel>
    </diagram>
    <diagram id="ToXJpDLBMQAJGgEgKLSj" name="repository">
        <mxGraphModel dx="1369" dy="947" grid="1" gridSize="10" guides="1" tooltips="1" connect="1" arrows="1" fold="1" page="1" pageScale="1" pageWidth="850" pageHeight="1100" math="0" shadow="0">
            <root>
                <mxCell id="D6TwSH5NIjkT4I8ytRke-0"/>
                <mxCell id="D6TwSH5NIjkT4I8ytRke-1" parent="D6TwSH5NIjkT4I8ytRke-0"/>
                <mxCell id="D6TwSH5NIjkT4I8ytRke-2" value="project folder" style="aspect=fixed;html=1;points=[];align=center;image;fontSize=12;image=img/lib/azure2/general/Folder_Blank.svg;" vertex="1" parent="D6TwSH5NIjkT4I8ytRke-1">
                    <mxGeometry x="120" y="439" width="73.93" height="60" as="geometry"/>
                </mxCell>
                <mxCell id="D6TwSH5NIjkT4I8ytRke-3" value=".git" style="aspect=fixed;html=1;points=[];align=center;image;fontSize=12;image=img/lib/azure2/general/Folder_Blank.svg;" vertex="1" parent="D6TwSH5NIjkT4I8ytRke-1">
                    <mxGeometry x="320" y="280" width="69" height="56.00000000000001" as="geometry"/>
                </mxCell>
                <mxCell id="D6TwSH5NIjkT4I8ytRke-4" value="objects" style="aspect=fixed;html=1;points=[];align=center;image;fontSize=12;image=img/lib/azure2/general/Folder_Blank.svg;" vertex="1" parent="D6TwSH5NIjkT4I8ytRke-1">
                    <mxGeometry x="510" y="144" width="69" height="56.00000000000001" as="geometry"/>
                </mxCell>
                <mxCell id="D6TwSH5NIjkT4I8ytRke-6" value="refs" style="aspect=fixed;html=1;points=[];align=center;image;fontSize=12;image=img/lib/azure2/general/Folder_Blank.svg;" vertex="1" parent="D6TwSH5NIjkT4I8ytRke-1">
                    <mxGeometry x="510" y="228" width="69" height="56.00000000000001" as="geometry"/>
                </mxCell>
                <mxCell id="D6TwSH5NIjkT4I8ytRke-8" value="" style="aspect=fixed;html=1;points=[];align=center;image;fontSize=12;image=img/lib/azure2/general/Folder_Blank.svg;" vertex="1" parent="D6TwSH5NIjkT4I8ytRke-1">
                    <mxGeometry x="320" y="400" width="69" height="56.00000000000001" as="geometry"/>
                </mxCell>
                <mxCell id="D6TwSH5NIjkT4I8ytRke-11" value="" style="aspect=fixed;html=1;points=[];align=center;image;fontSize=12;image=img/lib/azure2/general/Folder_Blank.svg;" vertex="1" parent="D6TwSH5NIjkT4I8ytRke-1">
                    <mxGeometry x="330" y="410" width="69" height="56.00000000000001" as="geometry"/>
                </mxCell>
                <mxCell id="D6TwSH5NIjkT4I8ytRke-12" value="" style="aspect=fixed;html=1;points=[];align=center;image;fontSize=12;image=img/lib/azure2/general/File.svg;" vertex="1" parent="D6TwSH5NIjkT4I8ytRke-1">
                    <mxGeometry x="320" y="500" width="64.93" height="80" as="geometry"/>
                </mxCell>
                <mxCell id="D6TwSH5NIjkT4I8ytRke-13" value="" style="aspect=fixed;html=1;points=[];align=center;image;fontSize=12;image=img/lib/azure2/general/File.svg;" vertex="1" parent="D6TwSH5NIjkT4I8ytRke-1">
                    <mxGeometry x="330" y="510" width="64.93" height="80" as="geometry"/>
                </mxCell>
                <mxCell id="D6TwSH5NIjkT4I8ytRke-14" value="" style="shape=curlyBracket;whiteSpace=wrap;html=1;rounded=1;fillColor=#b0e3e6;strokeColor=#0e8088;" vertex="1" parent="D6TwSH5NIjkT4I8ytRke-1">
                    <mxGeometry x="200" y="280" width="80" height="380" as="geometry"/>
                </mxCell>
                <mxCell id="D6TwSH5NIjkT4I8ytRke-15" value="index" style="aspect=fixed;html=1;points=[];align=center;image;fontSize=12;image=img/lib/azure2/general/File.svg;" vertex="1" parent="D6TwSH5NIjkT4I8ytRke-1">
                    <mxGeometry x="512.04" y="324" width="64.93" height="80" as="geometry"/>
                </mxCell>
                <mxCell id="D6TwSH5NIjkT4I8ytRke-16" value="" style="shape=curlyBracket;whiteSpace=wrap;html=1;rounded=1;fillColor=#b0e3e6;strokeColor=#0e8088;" vertex="1" parent="D6TwSH5NIjkT4I8ytRke-1">
                    <mxGeometry x="395.93" y="144" width="74.93" height="332" as="geometry"/>
                </mxCell>
                <mxCell id="D6TwSH5NIjkT4I8ytRke-18" value="..." style="text;html=1;align=center;verticalAlign=middle;resizable=0;points=[];autosize=1;strokeColor=none;fillColor=none;fontSize=50;" vertex="1" parent="D6TwSH5NIjkT4I8ytRke-1">
                    <mxGeometry x="320" y="605" width="60" height="70" as="geometry"/>
                </mxCell>
                <mxCell id="D6TwSH5NIjkT4I8ytRke-19" value="..." style="text;html=1;align=center;verticalAlign=middle;resizable=0;points=[];autosize=1;strokeColor=none;fillColor=none;fontSize=50;" vertex="1" parent="D6TwSH5NIjkT4I8ytRke-1">
                    <mxGeometry x="514.5" y="429" width="60" height="70" as="geometry"/>
                </mxCell>
                <mxCell id="D6TwSH5NIjkT4I8ytRke-20" value="..." style="text;html=1;align=center;verticalAlign=middle;resizable=0;points=[];autosize=1;strokeColor=none;fillColor=none;fontSize=50;" vertex="1" parent="D6TwSH5NIjkT4I8ytRke-1">
                    <mxGeometry x="620" y="136" width="60" height="70" as="geometry"/>
                </mxCell>
                <mxCell id="D6TwSH5NIjkT4I8ytRke-21" value="..." style="text;html=1;align=center;verticalAlign=middle;resizable=0;points=[];autosize=1;strokeColor=none;fillColor=none;fontSize=50;" vertex="1" parent="D6TwSH5NIjkT4I8ytRke-1">
                    <mxGeometry x="620" y="214" width="60" height="70" as="geometry"/>
                </mxCell>
                <mxCell id="D6TwSH5NIjkT4I8ytRke-22" value="" style="rounded=1;whiteSpace=wrap;html=1;fontSize=50;fillColor=none;" vertex="1" parent="D6TwSH5NIjkT4I8ytRke-1">
                    <mxGeometry x="300" y="379" width="110" height="291" as="geometry"/>
                </mxCell>
                <mxCell id="D6TwSH5NIjkT4I8ytRke-23" value="" style="rounded=1;whiteSpace=wrap;html=1;fontSize=50;fillColor=none;" vertex="1" parent="D6TwSH5NIjkT4I8ytRke-1">
                    <mxGeometry x="300" y="250" width="110" height="121" as="geometry"/>
                </mxCell>
            </root>
        </mxGraphModel>
    </diagram>
    <diagram id="Ad5_FMcvD9d543XHDcy-" name="1commit">
        <mxGraphModel dx="2595" dy="1548" grid="1" gridSize="10" guides="1" tooltips="1" connect="1" arrows="1" fold="1" page="1" pageScale="1" pageWidth="850" pageHeight="1100" math="0" shadow="0">
            <root>
                <mxCell id="5HorWbbOATuLPtiz7dQ4-0"/>
                <mxCell id="5HorWbbOATuLPtiz7dQ4-1" parent="5HorWbbOATuLPtiz7dQ4-0"/>
                <mxCell id="S5zDFiLbTZSVe5R7NtZv-3" value="" style="edgeStyle=none;rounded=0;orthogonalLoop=1;jettySize=auto;html=1;dashed=1;fontSize=24;" parent="5HorWbbOATuLPtiz7dQ4-1" source="S5zDFiLbTZSVe5R7NtZv-0" edge="1">
                    <mxGeometry relative="1" as="geometry">
                        <mxPoint x="380" y="360" as="targetPoint"/>
                    </mxGeometry>
                </mxCell>
                <mxCell id="S5zDFiLbTZSVe5R7NtZv-0" value="&lt;span style=&quot;font-size: 12px&quot;&gt;auther Han Ning&lt;br&gt;tree f4e5a3&lt;br&gt;root commit&lt;br&gt;&lt;/span&gt;" style="ellipse;whiteSpace=wrap;html=1;aspect=fixed;fontSize=24;fillColor=#76608a;fontColor=#ffffff;strokeColor=none;" parent="5HorWbbOATuLPtiz7dQ4-1" vertex="1">
                    <mxGeometry x="320" y="200" width="120" height="120" as="geometry"/>
                </mxCell>
                <mxCell id="X0OaENJdtyltzC1kzudk-2" style="edgeStyle=none;rounded=0;orthogonalLoop=1;jettySize=auto;html=1;entryX=0.5;entryY=0;entryDx=0;entryDy=0;dashed=1;fontSize=24;exitX=0.5;exitY=1;exitDx=0;exitDy=0;exitPerimeter=0;" parent="5HorWbbOATuLPtiz7dQ4-1" source="S5zDFiLbTZSVe5R7NtZv-5" target="X0OaENJdtyltzC1kzudk-0" edge="1">
                    <mxGeometry relative="1" as="geometry"/>
                </mxCell>
                <mxCell id="X0OaENJdtyltzC1kzudk-3" style="edgeStyle=none;rounded=0;orthogonalLoop=1;jettySize=auto;html=1;dashed=1;fontSize=24;exitX=0.5;exitY=1;exitDx=0;exitDy=0;exitPerimeter=0;entryX=0.5;entryY=0;entryDx=0;entryDy=0;" parent="5HorWbbOATuLPtiz7dQ4-1" source="S5zDFiLbTZSVe5R7NtZv-5" target="X0OaENJdtyltzC1kzudk-1" edge="1">
                    <mxGeometry relative="1" as="geometry">
                        <mxPoint x="400" y="520" as="targetPoint"/>
                    </mxGeometry>
                </mxCell>
                <mxCell id="S5zDFiLbTZSVe5R7NtZv-5" value="&lt;font&gt;&lt;span style=&quot;font-size: 12px&quot;&gt;blob 9120ce&lt;/span&gt;&lt;br&gt;&lt;span style=&quot;font-size: 12px&quot;&gt;&amp;nbsp;blob 433eb1&lt;/span&gt;&lt;br&gt;&lt;/font&gt;" style="strokeWidth=2;html=1;shape=mxgraph.flowchart.extract_or_measurement;whiteSpace=wrap;fontSize=24;strokeColor=none;fillColor=#008a00;fontColor=#ffffff;verticalAlign=bottom;spacing=2;" parent="5HorWbbOATuLPtiz7dQ4-1" vertex="1">
                    <mxGeometry x="320" y="360" width="120" height="120" as="geometry"/>
                </mxCell>
                <mxCell id="X0OaENJdtyltzC1kzudk-0" value="&lt;font style=&quot;font-size: 12px&quot;&gt;this is file0&lt;/font&gt;" style="rounded=1;whiteSpace=wrap;html=1;absoluteArcSize=1;arcSize=14;strokeWidth=2;fontSize=24;fillColor=#1ba1e2;fontColor=#ffffff;strokeColor=none;align=center;verticalAlign=middle;horizontal=1;" parent="5HorWbbOATuLPtiz7dQ4-1" vertex="1">
                    <mxGeometry x="239.5" y="560" width="120" height="120" as="geometry"/>
                </mxCell>
                <mxCell id="X0OaENJdtyltzC1kzudk-1" value="this is file1" style="rounded=1;whiteSpace=wrap;html=1;absoluteArcSize=1;arcSize=14;strokeWidth=2;fontSize=12;fillColor=#1ba1e2;fontColor=#ffffff;strokeColor=none;" parent="5HorWbbOATuLPtiz7dQ4-1" vertex="1">
                    <mxGeometry x="399.5" y="560" width="120" height="120" as="geometry"/>
                </mxCell>
                <mxCell id="FcAFEXvEga6YW7TyBLx5-1" value="commit&lt;br&gt;8d3168" style="text;html=1;resizable=0;points=[];autosize=1;align=left;verticalAlign=top;spacingTop=-4;strokeWidth=3;fontStyle=1" vertex="1" parent="5HorWbbOATuLPtiz7dQ4-1">
                    <mxGeometry x="280.5" y="200" width="60" height="30" as="geometry"/>
                </mxCell>
                <mxCell id="FcAFEXvEga6YW7TyBLx5-3" value="&lt;b&gt;tree&lt;br&gt;f4e5a3&lt;/b&gt;" style="text;html=1;resizable=0;points=[];autosize=1;align=left;verticalAlign=top;spacingTop=-4;" vertex="1" parent="5HorWbbOATuLPtiz7dQ4-1">
                    <mxGeometry x="295" y="403" width="50" height="30" as="geometry"/>
                </mxCell>
                <mxCell id="FcAFEXvEga6YW7TyBLx5-4" value="&lt;span style=&quot;text-align: center ; white-space: normal&quot;&gt;blob&lt;br&gt;9120ce&lt;/span&gt;" style="text;html=1;resizable=0;points=[];autosize=1;align=left;verticalAlign=top;spacingTop=-4;fontStyle=1;fontColor=#000000;" vertex="1" parent="5HorWbbOATuLPtiz7dQ4-1">
                    <mxGeometry x="188.5" y="603" width="50" height="30" as="geometry"/>
                </mxCell>
                <mxCell id="FcAFEXvEga6YW7TyBLx5-5" value="&lt;span style=&quot;text-align: center ; white-space: normal&quot;&gt;blob&lt;br&gt;433eb1&lt;/span&gt;" style="text;html=1;resizable=0;points=[];autosize=1;align=left;verticalAlign=top;spacingTop=-4;fontColor=#000000;fontStyle=1" vertex="1" parent="5HorWbbOATuLPtiz7dQ4-1">
                    <mxGeometry x="528.5" y="602" width="60" height="30" as="geometry"/>
                </mxCell>
                <mxCell id="FhpZxGg06aawmc8Ovixd-1" value="" style="edgeStyle=orthogonalEdgeStyle;rounded=0;orthogonalLoop=1;jettySize=auto;html=1;fontSize=12;fontColor=#000000;dashed=1;" edge="1" parent="5HorWbbOATuLPtiz7dQ4-1" source="FhpZxGg06aawmc8Ovixd-0" target="S5zDFiLbTZSVe5R7NtZv-0">
                    <mxGeometry relative="1" as="geometry"/>
                </mxCell>
                <mxCell id="FhpZxGg06aawmc8Ovixd-0" value="master" style="rounded=1;whiteSpace=wrap;html=1;fontSize=24;fillColor=#fa6800;fontColor=#000000;strokeColor=none;" vertex="1" parent="5HorWbbOATuLPtiz7dQ4-1">
                    <mxGeometry x="480.5" y="240" width="120" height="40" as="geometry"/>
                </mxCell>
                <mxCell id="rsOKyXGZZVtn1M4dtIeo-1" value="" style="edgeStyle=orthogonalEdgeStyle;rounded=0;orthogonalLoop=1;jettySize=auto;html=1;dashed=1;fontSize=12;fontColor=#000000;" edge="1" parent="5HorWbbOATuLPtiz7dQ4-1" source="rsOKyXGZZVtn1M4dtIeo-0" target="S5zDFiLbTZSVe5R7NtZv-0">
                    <mxGeometry relative="1" as="geometry"/>
                </mxCell>
                <mxCell id="rsOKyXGZZVtn1M4dtIeo-0" value="object 8d3168" style="rhombus;whiteSpace=wrap;html=1;fontSize=12;fillColor=#e51400;fontColor=#ffffff;strokeColor=none;" vertex="1" parent="5HorWbbOATuLPtiz7dQ4-1">
                    <mxGeometry x="159.5" y="200" width="120" height="120" as="geometry"/>
                </mxCell>
                <mxCell id="rsOKyXGZZVtn1M4dtIeo-2" value="tag&lt;br&gt;ec9b39" style="text;html=1;resizable=0;points=[];autosize=1;align=left;verticalAlign=top;spacingTop=-4;fontSize=12;fontColor=#000000;fontStyle=1" vertex="1" parent="5HorWbbOATuLPtiz7dQ4-1">
                    <mxGeometry x="138.5" y="200" width="50" height="30" as="geometry"/>
                </mxCell>
            </root>
        </mxGraphModel>
    </diagram>
    <diagram id="vwWe-otkiArGjUDykU9q" name="2commits">
        <mxGraphModel dx="1221" dy="728" grid="1" gridSize="10" guides="1" tooltips="1" connect="1" arrows="1" fold="1" page="1" pageScale="1" pageWidth="850" pageHeight="1100" math="0" shadow="0">
            <root>
                <mxCell id="_8vApWhh9eDbjpWdiWj5-0"/>
                <mxCell id="_8vApWhh9eDbjpWdiWj5-1" parent="_8vApWhh9eDbjpWdiWj5-0"/>
                <mxCell id="amGbiZEzkmiyyFAjJqL4-0" value="" style="edgeStyle=none;rounded=0;orthogonalLoop=1;jettySize=auto;html=1;dashed=1;fontSize=24;" edge="1" parent="_8vApWhh9eDbjpWdiWj5-1" source="amGbiZEzkmiyyFAjJqL4-1">
                    <mxGeometry relative="1" as="geometry">
                        <mxPoint x="320" y="360" as="targetPoint"/>
                    </mxGeometry>
                </mxCell>
                <mxCell id="amGbiZEzkmiyyFAjJqL4-1" value="&lt;span style=&quot;font-size: 12px&quot;&gt;auther Han Ning&lt;br&gt;tree f4e5a3&lt;br&gt;root commit&lt;br&gt;&lt;/span&gt;" style="ellipse;whiteSpace=wrap;html=1;aspect=fixed;fontSize=24;fillColor=#76608a;fontColor=#ffffff;strokeColor=none;" vertex="1" parent="_8vApWhh9eDbjpWdiWj5-1">
                    <mxGeometry x="260" y="200" width="120" height="120" as="geometry"/>
                </mxCell>
                <mxCell id="amGbiZEzkmiyyFAjJqL4-2" style="edgeStyle=none;rounded=0;orthogonalLoop=1;jettySize=auto;html=1;entryX=0.5;entryY=0;entryDx=0;entryDy=0;dashed=1;fontSize=24;exitX=0.5;exitY=1;exitDx=0;exitDy=0;exitPerimeter=0;" edge="1" parent="_8vApWhh9eDbjpWdiWj5-1" source="amGbiZEzkmiyyFAjJqL4-4" target="amGbiZEzkmiyyFAjJqL4-5">
                    <mxGeometry relative="1" as="geometry"/>
                </mxCell>
                <mxCell id="amGbiZEzkmiyyFAjJqL4-3" style="edgeStyle=none;rounded=0;orthogonalLoop=1;jettySize=auto;html=1;dashed=1;fontSize=24;exitX=0.5;exitY=1;exitDx=0;exitDy=0;exitPerimeter=0;entryX=0.5;entryY=0;entryDx=0;entryDy=0;" edge="1" parent="_8vApWhh9eDbjpWdiWj5-1" source="amGbiZEzkmiyyFAjJqL4-4" target="amGbiZEzkmiyyFAjJqL4-6">
                    <mxGeometry relative="1" as="geometry">
                        <mxPoint x="340" y="520" as="targetPoint"/>
                    </mxGeometry>
                </mxCell>
                <mxCell id="amGbiZEzkmiyyFAjJqL4-4" value="blob 9120ce&#10;blob 433eb1&#10;" style="strokeWidth=2;shape=mxgraph.flowchart.extract_or_measurement;whiteSpace=wrap;fontSize=12;strokeColor=none;fillColor=#008a00;fontColor=#ffffff;verticalAlign=bottom;spacing=2;" vertex="1" parent="_8vApWhh9eDbjpWdiWj5-1">
                    <mxGeometry x="260" y="360" width="120" height="120" as="geometry"/>
                </mxCell>
                <mxCell id="amGbiZEzkmiyyFAjJqL4-5" value="&lt;font style=&quot;font-size: 12px&quot;&gt;this is file0&lt;/font&gt;" style="rounded=1;whiteSpace=wrap;html=1;absoluteArcSize=1;arcSize=14;strokeWidth=2;fontSize=24;fillColor=#1ba1e2;fontColor=#ffffff;strokeColor=none;align=center;verticalAlign=middle;horizontal=1;" vertex="1" parent="_8vApWhh9eDbjpWdiWj5-1">
                    <mxGeometry x="179.5" y="560" width="120" height="120" as="geometry"/>
                </mxCell>
                <mxCell id="amGbiZEzkmiyyFAjJqL4-6" value="this is file1" style="rounded=1;whiteSpace=wrap;html=1;absoluteArcSize=1;arcSize=14;strokeWidth=2;fontSize=12;fillColor=#1ba1e2;fontColor=#ffffff;strokeColor=none;" vertex="1" parent="_8vApWhh9eDbjpWdiWj5-1">
                    <mxGeometry x="339.5" y="560" width="120" height="120" as="geometry"/>
                </mxCell>
                <mxCell id="amGbiZEzkmiyyFAjJqL4-7" value="commit&lt;br&gt;8d3168" style="text;html=1;resizable=0;points=[];autosize=1;align=left;verticalAlign=top;spacingTop=-4;strokeWidth=3;fontStyle=1" vertex="1" parent="_8vApWhh9eDbjpWdiWj5-1">
                    <mxGeometry x="220.5" y="200" width="60" height="30" as="geometry"/>
                </mxCell>
                <mxCell id="amGbiZEzkmiyyFAjJqL4-8" value="&lt;b&gt;tree&lt;br&gt;f4e5a3&lt;/b&gt;" style="text;html=1;resizable=0;points=[];autosize=1;align=left;verticalAlign=top;spacingTop=-4;" vertex="1" parent="_8vApWhh9eDbjpWdiWj5-1">
                    <mxGeometry x="235" y="403" width="50" height="30" as="geometry"/>
                </mxCell>
                <mxCell id="amGbiZEzkmiyyFAjJqL4-9" value="&lt;span style=&quot;text-align: center ; white-space: normal&quot;&gt;blob&lt;br&gt;9120ce&lt;/span&gt;" style="text;html=1;resizable=0;points=[];autosize=1;align=left;verticalAlign=top;spacingTop=-4;fontStyle=1;fontColor=#000000;" vertex="1" parent="_8vApWhh9eDbjpWdiWj5-1">
                    <mxGeometry x="214.5" y="680" width="50" height="30" as="geometry"/>
                </mxCell>
                <mxCell id="amGbiZEzkmiyyFAjJqL4-10" value="&lt;span style=&quot;text-align: center ; white-space: normal&quot;&gt;blob&lt;br&gt;433eb1&lt;/span&gt;" style="text;html=1;resizable=0;points=[];autosize=1;align=left;verticalAlign=top;spacingTop=-4;fontColor=#000000;fontStyle=1" vertex="1" parent="_8vApWhh9eDbjpWdiWj5-1">
                    <mxGeometry x="369.5" y="680" width="60" height="30" as="geometry"/>
                </mxCell>
                <mxCell id="amGbiZEzkmiyyFAjJqL4-23" value="" style="edgeStyle=none;rounded=0;orthogonalLoop=1;jettySize=auto;html=1;dashed=1;fontSize=12;fontColor=#000000;" edge="1" parent="_8vApWhh9eDbjpWdiWj5-1" source="amGbiZEzkmiyyFAjJqL4-12" target="amGbiZEzkmiyyFAjJqL4-17">
                    <mxGeometry relative="1" as="geometry"/>
                </mxCell>
                <mxCell id="amGbiZEzkmiyyFAjJqL4-12" value="master" style="rounded=1;whiteSpace=wrap;html=1;fontSize=24;fillColor=#fa6800;fontColor=#000000;strokeColor=none;" vertex="1" parent="_8vApWhh9eDbjpWdiWj5-1">
                    <mxGeometry x="699" y="239" width="120" height="41" as="geometry"/>
                </mxCell>
                <mxCell id="amGbiZEzkmiyyFAjJqL4-13" value="" style="edgeStyle=orthogonalEdgeStyle;rounded=0;orthogonalLoop=1;jettySize=auto;html=1;dashed=1;fontSize=12;fontColor=#000000;" edge="1" parent="_8vApWhh9eDbjpWdiWj5-1" source="amGbiZEzkmiyyFAjJqL4-14" target="amGbiZEzkmiyyFAjJqL4-1">
                    <mxGeometry relative="1" as="geometry"/>
                </mxCell>
                <mxCell id="amGbiZEzkmiyyFAjJqL4-14" value="object 8d3168" style="rhombus;whiteSpace=wrap;html=1;fontSize=12;fillColor=#e51400;fontColor=#ffffff;strokeColor=none;" vertex="1" parent="_8vApWhh9eDbjpWdiWj5-1">
                    <mxGeometry x="99.5" y="200" width="120" height="120" as="geometry"/>
                </mxCell>
                <mxCell id="amGbiZEzkmiyyFAjJqL4-15" value="tag&lt;br&gt;ec9b39" style="text;html=1;resizable=0;points=[];autosize=1;align=left;verticalAlign=top;spacingTop=-4;fontSize=12;fontColor=#000000;fontStyle=1" vertex="1" parent="_8vApWhh9eDbjpWdiWj5-1">
                    <mxGeometry x="78.5" y="200" width="50" height="30" as="geometry"/>
                </mxCell>
                <mxCell id="amGbiZEzkmiyyFAjJqL4-35" value="" style="edgeStyle=none;rounded=0;orthogonalLoop=1;jettySize=auto;html=1;dashed=1;fontSize=12;fontColor=#ffffff;" edge="1" parent="_8vApWhh9eDbjpWdiWj5-1" source="amGbiZEzkmiyyFAjJqL4-16" target="amGbiZEzkmiyyFAjJqL4-34">
                    <mxGeometry relative="1" as="geometry"/>
                </mxCell>
                <mxCell id="amGbiZEzkmiyyFAjJqL4-16" value="blob f13882&#10;" style="strokeWidth=2;shape=mxgraph.flowchart.extract_or_measurement;whiteSpace=wrap;fontSize=11;strokeColor=none;fillColor=#008a00;fontColor=#ffffff;verticalAlign=bottom;spacing=2;" vertex="1" parent="_8vApWhh9eDbjpWdiWj5-1">
                    <mxGeometry x="540.5" y="560" width="120" height="120" as="geometry"/>
                </mxCell>
                <mxCell id="amGbiZEzkmiyyFAjJqL4-22" style="rounded=0;orthogonalLoop=1;jettySize=auto;html=1;entryX=1;entryY=0.5;entryDx=0;entryDy=0;dashed=1;fontSize=12;fontColor=#000000;exitX=0;exitY=0.5;exitDx=0;exitDy=0;" edge="1" parent="_8vApWhh9eDbjpWdiWj5-1" source="amGbiZEzkmiyyFAjJqL4-17" target="amGbiZEzkmiyyFAjJqL4-1">
                    <mxGeometry relative="1" as="geometry"/>
                </mxCell>
                <mxCell id="amGbiZEzkmiyyFAjJqL4-25" value="" style="edgeStyle=none;rounded=0;orthogonalLoop=1;jettySize=auto;html=1;dashed=1;fontSize=12;fontColor=#000000;" edge="1" parent="_8vApWhh9eDbjpWdiWj5-1" source="amGbiZEzkmiyyFAjJqL4-17" target="amGbiZEzkmiyyFAjJqL4-24">
                    <mxGeometry relative="1" as="geometry"/>
                </mxCell>
                <mxCell id="amGbiZEzkmiyyFAjJqL4-17" value="&lt;span style=&quot;font-size: 12px&quot;&gt;auther Han Ning&lt;/span&gt;&lt;br&gt;&lt;span style=&quot;font-size: 12px&quot;&gt;tree d7ab7c&lt;/span&gt;&lt;br&gt;&lt;span style=&quot;font-size: 12px&quot;&gt;root commit&lt;/span&gt;" style="ellipse;whiteSpace=wrap;html=1;aspect=fixed;fontSize=24;fillColor=#76608a;fontColor=#ffffff;strokeColor=none;" vertex="1" parent="_8vApWhh9eDbjpWdiWj5-1">
                    <mxGeometry x="540.5" y="199" width="120" height="121" as="geometry"/>
                </mxCell>
                <mxCell id="amGbiZEzkmiyyFAjJqL4-18" value="commit&lt;br&gt;805508&lt;br&gt;&lt;span style=&quot;font-family: &amp;#34;helvetica&amp;#34; , &amp;#34;arial&amp;#34; , sans-serif ; font-size: 0px ; font-weight: 400&quot;&gt;%3CmxGraphModel%3E%3Croot%3E%3CmxCell%20id%3D%220%22%2F%3E%3CmxCell%20id%3D%221%22%20parent%3D%220%22%2F%3E%3CmxCell%20id%3D%222%22%20value%3D%22commit%26lt%3Bbr%26gt%3B8d3168%22%20style%3D%22text%3Bhtml%3D1%3Bresizable%3D0%3Bpoints%3D%5B%5D%3Bautosize%3D1%3Balign%3Dleft%3BverticalAlign%3Dtop%3BspacingTop%3D-4%3BstrokeWidth%3D3%3BfontStyle%3D1%22%20vertex%3D%221%22%20parent%3D%221%22%3E%3CmxGeometry%20x%3D%22280.5%22%20y%3D%22200%22%20width%3D%2260%22%20height%3D%2230%22%20as%3D%22geometry%22%2F%3E%3C%2FmxCell%3E%3C%2Froot%3E%3C%2FmxGraphModel%&lt;/span&gt;" style="text;html=1;resizable=0;points=[];autosize=1;align=left;verticalAlign=top;spacingTop=-4;strokeWidth=3;fontStyle=1" vertex="1" parent="_8vApWhh9eDbjpWdiWj5-1">
                    <mxGeometry x="500" y="199" width="60" height="50" as="geometry"/>
                </mxCell>
                <mxCell id="amGbiZEzkmiyyFAjJqL4-28" style="edgeStyle=none;rounded=0;orthogonalLoop=1;jettySize=auto;html=1;dashed=1;fontSize=12;fontColor=#000000;exitX=0.5;exitY=1;exitDx=0;exitDy=0;exitPerimeter=0;" edge="1" parent="_8vApWhh9eDbjpWdiWj5-1" source="amGbiZEzkmiyyFAjJqL4-24">
                    <mxGeometry relative="1" as="geometry">
                        <mxPoint x="240" y="560" as="targetPoint"/>
                    </mxGeometry>
                </mxCell>
                <mxCell id="amGbiZEzkmiyyFAjJqL4-31" value="" style="edgeStyle=none;rounded=0;orthogonalLoop=1;jettySize=auto;html=1;dashed=1;fontSize=12;fontColor=#000000;" edge="1" parent="_8vApWhh9eDbjpWdiWj5-1" source="amGbiZEzkmiyyFAjJqL4-24" target="amGbiZEzkmiyyFAjJqL4-16">
                    <mxGeometry relative="1" as="geometry"/>
                </mxCell>
                <mxCell id="amGbiZEzkmiyyFAjJqL4-32" style="edgeStyle=none;rounded=0;orthogonalLoop=1;jettySize=auto;html=1;entryX=0.5;entryY=0;entryDx=0;entryDy=0;dashed=1;fontSize=12;fontColor=#000000;" edge="1" parent="_8vApWhh9eDbjpWdiWj5-1" target="amGbiZEzkmiyyFAjJqL4-29">
                    <mxGeometry relative="1" as="geometry">
                        <mxPoint x="601" y="480" as="sourcePoint"/>
                    </mxGeometry>
                </mxCell>
                <mxCell id="amGbiZEzkmiyyFAjJqL4-24" value="blob 9120ce&#10;blob 0dde9a&#10;tree a1f08a&#10;" style="strokeWidth=2;shape=mxgraph.flowchart.extract_or_measurement;whiteSpace=wrap;fontSize=10;strokeColor=none;fillColor=#008a00;fontColor=#ffffff;verticalAlign=bottom;spacing=2;spacingTop=0;align=center;" vertex="1" parent="_8vApWhh9eDbjpWdiWj5-1">
                    <mxGeometry x="540.5" y="359" width="120" height="121" as="geometry"/>
                </mxCell>
                <mxCell id="amGbiZEzkmiyyFAjJqL4-26" value="&lt;b&gt;tree&lt;/b&gt;&lt;br&gt;&lt;b&gt;d7ab7c&lt;/b&gt;&lt;br&gt;&lt;span style=&quot;font-family: &amp;#34;helvetica&amp;#34; , &amp;#34;arial&amp;#34; , sans-serif ; font-size: 0px&quot;&gt;%3CmxGraphModel%3E%3Croot%3E%3CmxCell%20id%3D%220%22%2F%3E%3CmxCell%20id%3D%221%22%20parent%3D%220%22%2F%3E%3CmxCell%20id%3D%222%22%20value%3D%22%26lt%3Bb%26gt%3Btree%26lt%3Bbr%26gt%3Bf4e5a3%26lt%3B%2Fb%26gt%3B%22%20style%3D%22text%3Bhtml%3D1%3Bresizable%3D0%3Bpoints%3D%5B%5D%3Bautosize%3D1%3Balign%3Dleft%3BverticalAlign%3Dtop%3BspacingTop%3D-4%3B%22%20vertex%3D%221%22%20parent%3D%221%22%3E%3CmxGeometry%20x%3D%22295%22%20y%3D%22403%22%20width%3D%2250%22%20height%3D%2230%22%20as%3D%22geometry%22%2F%3E%3C%2FmxCell%3E%3C%2Froot%3E%3C%2FmxGraphModel%3E&lt;/span&gt;&lt;b&gt;&lt;br&gt;&lt;/b&gt;" style="text;html=1;resizable=0;points=[];autosize=1;align=left;verticalAlign=top;spacingTop=-4;" vertex="1" parent="_8vApWhh9eDbjpWdiWj5-1">
                    <mxGeometry x="510" y="403" width="60" height="50" as="geometry"/>
                </mxCell>
                <mxCell id="amGbiZEzkmiyyFAjJqL4-27" value="parent" style="text;html=1;resizable=0;points=[];autosize=1;align=left;verticalAlign=top;spacingTop=-4;fontSize=12;fontColor=#000000;" vertex="1" parent="_8vApWhh9eDbjpWdiWj5-1">
                    <mxGeometry x="448" y="241" width="50" height="20" as="geometry"/>
                </mxCell>
                <mxCell id="amGbiZEzkmiyyFAjJqL4-29" value="this is file1, and modified" style="rounded=1;whiteSpace=wrap;html=1;absoluteArcSize=1;arcSize=14;strokeWidth=2;fontSize=12;fillColor=#1ba1e2;fontColor=#ffffff;strokeColor=none;" vertex="1" parent="_8vApWhh9eDbjpWdiWj5-1">
                    <mxGeometry x="700" y="560" width="120" height="120" as="geometry"/>
                </mxCell>
                <mxCell id="amGbiZEzkmiyyFAjJqL4-30" value="&lt;span style=&quot;text-align: center&quot;&gt;&lt;span style=&quot;white-space: normal&quot;&gt;blob&lt;/span&gt;&lt;br&gt;&lt;span style=&quot;white-space: normal&quot;&gt;0dde9a&lt;/span&gt;&lt;br&gt;&lt;/span&gt;" style="text;html=1;resizable=0;points=[];autosize=1;align=left;verticalAlign=top;spacingTop=-4;fontColor=#000000;fontStyle=1" vertex="1" parent="_8vApWhh9eDbjpWdiWj5-1">
                    <mxGeometry x="730" y="680" width="60" height="30" as="geometry"/>
                </mxCell>
                <mxCell id="amGbiZEzkmiyyFAjJqL4-33" value="&lt;b&gt;tree&lt;/b&gt;&lt;br&gt;&lt;b&gt;a1f08a&lt;/b&gt;&lt;br&gt;&lt;span style=&quot;font-family: &amp;#34;helvetica&amp;#34; , &amp;#34;arial&amp;#34; , sans-serif ; font-size: 0px&quot;&gt;%3CmxGraphModel%3E%3Croot%3E%3CmxCell%20id%3D%220%22%2F%3E%3CmxCell%20id%3D%221%22%20parent%3D%220%22%2F%3E%3CmxCell%20id%3D%222%22%20value%3D%22%26lt%3Bb%26gt%3Btree%26lt%3Bbr%26gt%3Bf4e5a3%26lt%3B%2Fb%26gt%3B%22%20style%3D%22text%3Bhtml%3D1%3Bresizable%3D0%3Bpoints%3D%5B%5D%3Bautosize%3D1%3Balign%3Dleft%3BverticalAlign%3Dtop%3BspacingTop%3D-4%3B%22%20vertex%3D%221%22%20parent%3D%221%22%3E%3CmxGeometry%20x%3D%22295%22%20y%3D%22403%22%20width%3D%2250%22%20height%3D%2230%22%20as%3D%22geometry%22%2F%3E%3C%2FmxCell%3E%3C%2Froot%3E%3C%2FmxGraphModel%3E&lt;/span&gt;&lt;b&gt;&lt;br&gt;&lt;/b&gt;" style="text;html=1;resizable=0;points=[];autosize=1;align=left;verticalAlign=top;spacingTop=-4;" vertex="1" parent="_8vApWhh9eDbjpWdiWj5-1">
                    <mxGeometry x="520" y="604" width="50" height="50" as="geometry"/>
                </mxCell>
                <mxCell id="amGbiZEzkmiyyFAjJqL4-34" value="this is file2" style="rounded=1;whiteSpace=wrap;html=1;absoluteArcSize=1;arcSize=14;strokeWidth=2;fontSize=12;fillColor=#1ba1e2;fontColor=#ffffff;strokeColor=none;" vertex="1" parent="_8vApWhh9eDbjpWdiWj5-1">
                    <mxGeometry x="540" y="720" width="120" height="120" as="geometry"/>
                </mxCell>
                <mxCell id="amGbiZEzkmiyyFAjJqL4-36" value="&lt;span style=&quot;text-align: center&quot;&gt;&lt;span style=&quot;white-space: normal&quot;&gt;blob&lt;/span&gt;&lt;br&gt;&lt;span style=&quot;white-space: normal&quot;&gt;f13882&lt;/span&gt;&lt;br&gt;&lt;/span&gt;" style="text;html=1;resizable=0;points=[];autosize=1;align=left;verticalAlign=top;spacingTop=-4;fontColor=#000000;fontStyle=1" vertex="1" parent="_8vApWhh9eDbjpWdiWj5-1">
                    <mxGeometry x="570.5" y="840" width="50" height="30" as="geometry"/>
                </mxCell>
            </root>
        </mxGraphModel>
    </diagram>
    <diagram id="9m5LkqIwq7IBTt8XczDq" name="index1">
        <mxGraphModel dx="1038" dy="1719" grid="1" gridSize="10" guides="1" tooltips="1" connect="1" arrows="1" fold="1" page="1" pageScale="1" pageWidth="850" pageHeight="1100" math="0" shadow="0">
            <root>
                <mxCell id="KyyUpy7X2XhXpdFj26_2-0"/>
                <mxCell id="KyyUpy7X2XhXpdFj26_2-1" parent="KyyUpy7X2XhXpdFj26_2-0"/>
                <mxCell id="zDN8A1lDzapATDSdV1du-2" value="Object store" style="rounded=0;whiteSpace=wrap;html=1;strokeWidth=2;fillColor=#cdeb8b;fontSize=16;align=left;verticalAlign=top;fontStyle=1;dashed=1;strokeColor=none;" vertex="1" parent="KyyUpy7X2XhXpdFj26_2-1">
                    <mxGeometry x="1200" y="-40" width="400" height="480" as="geometry"/>
                </mxCell>
                <mxCell id="9yI7PHcajiF5d6QNgTek-1" value="Index" style="rounded=0;whiteSpace=wrap;html=1;strokeWidth=2;fillColor=#dae8fc;fontSize=16;align=left;verticalAlign=top;fontStyle=1;strokeColor=none;dashed=1;" vertex="1" parent="KyyUpy7X2XhXpdFj26_2-1">
                    <mxGeometry x="1000" y="-40" width="200" height="480" as="geometry"/>
                </mxCell>
                <mxCell id="9yI7PHcajiF5d6QNgTek-6" style="edgeStyle=none;rounded=0;orthogonalLoop=1;jettySize=auto;html=1;entryX=0.5;entryY=0;entryDx=0;entryDy=0;dashed=1;fontSize=16;fontColor=#000000;exitX=0.631;exitY=0.995;exitDx=0;exitDy=0;exitPerimeter=0;" edge="1" parent="KyyUpy7X2XhXpdFj26_2-1" source="9yI7PHcajiF5d6QNgTek-0" target="9yI7PHcajiF5d6QNgTek-3">
                    <mxGeometry relative="1" as="geometry"/>
                </mxCell>
                <mxCell id="9yI7PHcajiF5d6QNgTek-5" style="edgeStyle=none;rounded=0;orthogonalLoop=1;jettySize=auto;html=1;entryX=0.5;entryY=0;entryDx=0;entryDy=0;dashed=1;fontSize=16;fontColor=#000000;exitX=0.377;exitY=1.013;exitDx=0;exitDy=0;exitPerimeter=0;" edge="1" parent="KyyUpy7X2XhXpdFj26_2-1" source="9yI7PHcajiF5d6QNgTek-0" target="9yI7PHcajiF5d6QNgTek-2">
                    <mxGeometry relative="1" as="geometry"/>
                </mxCell>
                <mxCell id="2hudwRnvZoHULq4uQcf4-10" value="Working directory" style="rounded=0;whiteSpace=wrap;html=1;strokeWidth=2;fillColor=#f8cecc;fontSize=16;align=left;verticalAlign=top;fontStyle=1;dashed=1;strokeColor=none;" vertex="1" parent="KyyUpy7X2XhXpdFj26_2-1">
                    <mxGeometry x="560" y="-40" width="440" height="480" as="geometry"/>
                </mxCell>
                <mxCell id="2hudwRnvZoHULq4uQcf4-0" value="this is file0" style="rounded=1;whiteSpace=wrap;html=1;absoluteArcSize=1;arcSize=14;strokeWidth=2;fontSize=12;fillColor=#1ba1e2;fontColor=#ffffff;strokeColor=none;" vertex="1" parent="KyyUpy7X2XhXpdFj26_2-1">
                    <mxGeometry x="600" y="260" width="120" height="120" as="geometry"/>
                </mxCell>
                <mxCell id="2hudwRnvZoHULq4uQcf4-1" value="this is file1" style="rounded=1;whiteSpace=wrap;html=1;absoluteArcSize=1;arcSize=14;strokeWidth=2;fontSize=12;fillColor=#1ba1e2;fontColor=#ffffff;strokeColor=none;" vertex="1" parent="KyyUpy7X2XhXpdFj26_2-1">
                    <mxGeometry x="840" y="260" width="120" height="120" as="geometry"/>
                </mxCell>
                <mxCell id="2hudwRnvZoHULq4uQcf4-3" style="edgeStyle=none;rounded=0;orthogonalLoop=1;jettySize=auto;html=1;entryX=0.5;entryY=0;entryDx=0;entryDy=0;dashed=1;fontSize=12;fontColor=#000000;" edge="1" parent="KyyUpy7X2XhXpdFj26_2-1" source="2hudwRnvZoHULq4uQcf4-2" target="2hudwRnvZoHULq4uQcf4-0">
                    <mxGeometry relative="1" as="geometry"/>
                </mxCell>
                <mxCell id="2hudwRnvZoHULq4uQcf4-4" style="edgeStyle=none;rounded=0;orthogonalLoop=1;jettySize=auto;html=1;entryX=0.5;entryY=0;entryDx=0;entryDy=0;dashed=1;fontSize=12;fontColor=#000000;" edge="1" parent="KyyUpy7X2XhXpdFj26_2-1" source="2hudwRnvZoHULq4uQcf4-2" target="2hudwRnvZoHULq4uQcf4-1">
                    <mxGeometry relative="1" as="geometry"/>
                </mxCell>
                <mxCell id="2hudwRnvZoHULq4uQcf4-2" value="Project" style="text;html=1;resizable=0;points=[];autosize=1;align=left;verticalAlign=top;spacingTop=-4;fontSize=16;fontColor=#000000;fontStyle=1" vertex="1" parent="KyyUpy7X2XhXpdFj26_2-1">
                    <mxGeometry x="750" y="39.5" width="50" height="20" as="geometry"/>
                </mxCell>
                <mxCell id="2hudwRnvZoHULq4uQcf4-5" value="file0" style="text;html=1;resizable=0;points=[];autosize=1;align=center;verticalAlign=top;spacingTop=-4;fontSize=16;fontColor=#000000;" vertex="1" parent="KyyUpy7X2XhXpdFj26_2-1">
                    <mxGeometry x="635" y="380" width="50" height="20" as="geometry"/>
                </mxCell>
                <mxCell id="2hudwRnvZoHULq4uQcf4-9" value="file1" style="text;html=1;resizable=0;points=[];autosize=1;align=center;verticalAlign=top;spacingTop=-4;fontSize=16;fontColor=#000000;" vertex="1" parent="KyyUpy7X2XhXpdFj26_2-1">
                    <mxGeometry x="875" y="380" width="50" height="20" as="geometry"/>
                </mxCell>
                <mxCell id="9yI7PHcajiF5d6QNgTek-0" value="&lt;font style=&quot;font-size: 12px&quot;&gt;file0&amp;nbsp; &amp;nbsp;file1&lt;/font&gt;" style="strokeWidth=2;html=1;shape=mxgraph.flowchart.extract_or_measurement;whiteSpace=wrap;fontSize=24;strokeColor=none;fillColor=#008a00;fontColor=#ffffff;verticalAlign=bottom;" vertex="1" parent="KyyUpy7X2XhXpdFj26_2-1">
                    <mxGeometry x="1040" y="26" width="120" height="120" as="geometry"/>
                </mxCell>
                <mxCell id="9yI7PHcajiF5d6QNgTek-2" value="this is file0" style="rounded=1;whiteSpace=wrap;html=1;absoluteArcSize=1;arcSize=14;strokeWidth=2;fontSize=12;fillColor=#1ba1e2;fontColor=#ffffff;strokeColor=none;" vertex="1" parent="KyyUpy7X2XhXpdFj26_2-1">
                    <mxGeometry x="1239" y="279.7999267578125" width="120" height="120" as="geometry"/>
                </mxCell>
                <mxCell id="9yI7PHcajiF5d6QNgTek-3" value="this is file1" style="rounded=1;whiteSpace=wrap;html=1;absoluteArcSize=1;arcSize=14;strokeWidth=2;fontSize=12;fillColor=#1ba1e2;fontColor=#ffffff;strokeColor=none;" vertex="1" parent="KyyUpy7X2XhXpdFj26_2-1">
                    <mxGeometry x="1440" y="279.7999267578125" width="120" height="120" as="geometry"/>
                </mxCell>
                <mxCell id="1DecXfBU2w5ASpyETmL5-1" style="edgeStyle=none;rounded=0;orthogonalLoop=1;jettySize=auto;html=1;entryX=0.5;entryY=0;entryDx=0;entryDy=0;dashed=1;fontSize=16;fontColor=#000000;exitX=0.5;exitY=1;exitDx=0;exitDy=0;exitPerimeter=0;" edge="1" parent="KyyUpy7X2XhXpdFj26_2-1" source="9yI7PHcajiF5d6QNgTek-4" target="9yI7PHcajiF5d6QNgTek-2">
                    <mxGeometry relative="1" as="geometry"/>
                </mxCell>
                <mxCell id="1DecXfBU2w5ASpyETmL5-2" style="edgeStyle=none;rounded=0;orthogonalLoop=1;jettySize=auto;html=1;entryX=0.5;entryY=0;entryDx=0;entryDy=0;dashed=1;fontSize=16;fontColor=#000000;exitX=0.5;exitY=1;exitDx=0;exitDy=0;exitPerimeter=0;" edge="1" parent="KyyUpy7X2XhXpdFj26_2-1" source="9yI7PHcajiF5d6QNgTek-4" target="9yI7PHcajiF5d6QNgTek-3">
                    <mxGeometry relative="1" as="geometry"/>
                </mxCell>
                <mxCell id="9yI7PHcajiF5d6QNgTek-4" value="" style="strokeWidth=2;html=1;shape=mxgraph.flowchart.extract_or_measurement;whiteSpace=wrap;fontSize=24;strokeColor=none;fillColor=#008a00;fontColor=#ffffff;verticalAlign=bottom;" vertex="1" parent="KyyUpy7X2XhXpdFj26_2-1">
                    <mxGeometry x="1360" y="120" width="80" height="80" as="geometry"/>
                </mxCell>
                <mxCell id="1DecXfBU2w5ASpyETmL5-3" value="" style="edgeStyle=none;rounded=0;orthogonalLoop=1;jettySize=auto;html=1;dashed=1;fontSize=16;fontColor=#000000;entryX=0.5;entryY=0;entryDx=0;entryDy=0;entryPerimeter=0;" edge="1" parent="KyyUpy7X2XhXpdFj26_2-1" source="1DecXfBU2w5ASpyETmL5-0" target="9yI7PHcajiF5d6QNgTek-4">
                    <mxGeometry relative="1" as="geometry"/>
                </mxCell>
                <mxCell id="1DecXfBU2w5ASpyETmL5-0" value="" style="ellipse;whiteSpace=wrap;html=1;aspect=fixed;fontSize=24;fillColor=#76608a;fontColor=#ffffff;strokeColor=none;" vertex="1" parent="KyyUpy7X2XhXpdFj26_2-1">
                    <mxGeometry x="1360" y="-0.5" width="80" height="80" as="geometry"/>
                </mxCell>
                <mxCell id="zDN8A1lDzapATDSdV1du-1" value="" style="edgeStyle=none;rounded=0;orthogonalLoop=1;jettySize=auto;html=1;dashed=1;fontSize=16;fontColor=#000000;" edge="1" parent="KyyUpy7X2XhXpdFj26_2-1" source="zDN8A1lDzapATDSdV1du-0" target="1DecXfBU2w5ASpyETmL5-0">
                    <mxGeometry relative="1" as="geometry"/>
                </mxCell>
                <mxCell id="zDN8A1lDzapATDSdV1du-0" value="&lt;font style=&quot;font-size: 18px&quot;&gt;master&lt;/font&gt;" style="rounded=1;whiteSpace=wrap;html=1;fontSize=24;fillColor=#fa6800;fontColor=#000000;strokeColor=none;verticalAlign=top;align=center;" vertex="1" parent="KyyUpy7X2XhXpdFj26_2-1">
                    <mxGeometry x="1480" y="19.5" width="80" height="40" as="geometry"/>
                </mxCell>
                <mxCell id="ItTyLxLOtUvjHg2tUlVa-0" value="&amp;nbsp;9120ce" style="text;html=1;resizable=0;points=[];autosize=1;align=center;verticalAlign=top;spacingTop=-4;fontSize=12;fontColor=#000000;" vertex="1" parent="KyyUpy7X2XhXpdFj26_2-1">
                    <mxGeometry x="1269" y="400" width="60" height="20" as="geometry"/>
                </mxCell>
                <mxCell id="ItTyLxLOtUvjHg2tUlVa-1" value="433eb1" style="text;html=1;resizable=0;points=[];autosize=1;align=center;verticalAlign=top;spacingTop=-4;fontSize=12;fontColor=#000000;" vertex="1" parent="KyyUpy7X2XhXpdFj26_2-1">
                    <mxGeometry x="1470" y="400" width="60" height="20" as="geometry"/>
                </mxCell>
            </root>
        </mxGraphModel>
    </diagram>
    <diagram name="index2" id="PIn8KET0uYX2k_q-6ES9">
        <mxGraphModel dx="2062" dy="2301" grid="1" gridSize="10" guides="1" tooltips="1" connect="1" arrows="1" fold="1" page="1" pageScale="1" pageWidth="850" pageHeight="1100" math="0" shadow="0">
            <root>
                <mxCell id="8NPhE_IGq8rDWJXMzZpj-0"/>
                <mxCell id="8NPhE_IGq8rDWJXMzZpj-1" parent="8NPhE_IGq8rDWJXMzZpj-0"/>
                <mxCell id="8NPhE_IGq8rDWJXMzZpj-2" value="Object store" style="rounded=0;whiteSpace=wrap;html=1;strokeWidth=2;fillColor=#cdeb8b;fontSize=16;align=left;verticalAlign=top;fontStyle=1;dashed=1;strokeColor=none;" parent="8NPhE_IGq8rDWJXMzZpj-1" vertex="1">
                    <mxGeometry x="1200" y="-40" width="400" height="480" as="geometry"/>
                </mxCell>
                <mxCell id="8NPhE_IGq8rDWJXMzZpj-3" value="Index" style="rounded=0;whiteSpace=wrap;html=1;strokeWidth=2;fillColor=#dae8fc;fontSize=16;align=left;verticalAlign=top;fontStyle=1;strokeColor=none;dashed=1;" parent="8NPhE_IGq8rDWJXMzZpj-1" vertex="1">
                    <mxGeometry x="1000" y="-40" width="200" height="480" as="geometry"/>
                </mxCell>
                <mxCell id="8NPhE_IGq8rDWJXMzZpj-4" style="edgeStyle=none;rounded=0;orthogonalLoop=1;jettySize=auto;html=1;entryX=0.5;entryY=0;entryDx=0;entryDy=0;dashed=1;fontSize=16;fontColor=#000000;exitX=0.631;exitY=0.995;exitDx=0;exitDy=0;exitPerimeter=0;" parent="8NPhE_IGq8rDWJXMzZpj-1" source="8NPhE_IGq8rDWJXMzZpj-14" target="8NPhE_IGq8rDWJXMzZpj-16" edge="1">
                    <mxGeometry relative="1" as="geometry"/>
                </mxCell>
                <mxCell id="8NPhE_IGq8rDWJXMzZpj-5" style="edgeStyle=none;rounded=0;orthogonalLoop=1;jettySize=auto;html=1;entryX=0.5;entryY=0;entryDx=0;entryDy=0;dashed=1;fontSize=16;fontColor=#000000;exitX=0.377;exitY=1.013;exitDx=0;exitDy=0;exitPerimeter=0;" parent="8NPhE_IGq8rDWJXMzZpj-1" source="8NPhE_IGq8rDWJXMzZpj-14" target="8NPhE_IGq8rDWJXMzZpj-15" edge="1">
                    <mxGeometry relative="1" as="geometry"/>
                </mxCell>
                <mxCell id="8NPhE_IGq8rDWJXMzZpj-6" value="Working directory" style="rounded=0;whiteSpace=wrap;html=1;strokeWidth=2;fillColor=#f8cecc;fontSize=16;align=left;verticalAlign=top;fontStyle=1;dashed=1;strokeColor=none;" parent="8NPhE_IGq8rDWJXMzZpj-1" vertex="1">
                    <mxGeometry x="520" y="-40" width="480" height="480" as="geometry"/>
                </mxCell>
                <mxCell id="8NPhE_IGq8rDWJXMzZpj-7" value="this is file0" style="rounded=1;whiteSpace=wrap;html=1;absoluteArcSize=1;arcSize=14;strokeWidth=2;fontSize=12;fillColor=#1ba1e2;fontColor=#ffffff;strokeColor=none;" parent="8NPhE_IGq8rDWJXMzZpj-1" vertex="1">
                    <mxGeometry x="560" y="281.5" width="120" height="120" as="geometry"/>
                </mxCell>
                <mxCell id="8NPhE_IGq8rDWJXMzZpj-8" value="this is file1, modified" style="rounded=1;whiteSpace=wrap;html=1;absoluteArcSize=1;arcSize=14;strokeWidth=2;fontSize=12;fillColor=#1ba1e2;fontColor=#ffffff;strokeColor=none;" parent="8NPhE_IGq8rDWJXMzZpj-1" vertex="1">
                    <mxGeometry x="700" y="281.5" width="120" height="120" as="geometry"/>
                </mxCell>
                <mxCell id="8NPhE_IGq8rDWJXMzZpj-9" style="edgeStyle=none;rounded=0;orthogonalLoop=1;jettySize=auto;html=1;entryX=0.5;entryY=0;entryDx=0;entryDy=0;dashed=1;fontSize=12;fontColor=#000000;" parent="8NPhE_IGq8rDWJXMzZpj-1" source="8NPhE_IGq8rDWJXMzZpj-11" target="8NPhE_IGq8rDWJXMzZpj-7" edge="1">
                    <mxGeometry relative="1" as="geometry"/>
                </mxCell>
                <mxCell id="8NPhE_IGq8rDWJXMzZpj-10" style="edgeStyle=none;rounded=0;orthogonalLoop=1;jettySize=auto;html=1;entryX=0.5;entryY=0;entryDx=0;entryDy=0;dashed=1;fontSize=12;fontColor=#000000;" parent="8NPhE_IGq8rDWJXMzZpj-1" source="8NPhE_IGq8rDWJXMzZpj-11" target="8NPhE_IGq8rDWJXMzZpj-8" edge="1">
                    <mxGeometry relative="1" as="geometry"/>
                </mxCell>
                <mxCell id="8NPhE_IGq8rDWJXMzZpj-11" value="Project" style="text;html=1;resizable=0;points=[];autosize=1;align=left;verticalAlign=top;spacingTop=-4;fontSize=16;fontColor=#000000;fontStyle=1" parent="8NPhE_IGq8rDWJXMzZpj-1" vertex="1">
                    <mxGeometry x="675" y="51" width="50" height="20" as="geometry"/>
                </mxCell>
                <mxCell id="8NPhE_IGq8rDWJXMzZpj-12" value="file0" style="text;html=1;resizable=0;points=[];autosize=1;align=center;verticalAlign=top;spacingTop=-4;fontSize=16;fontColor=#000000;" parent="8NPhE_IGq8rDWJXMzZpj-1" vertex="1">
                    <mxGeometry x="595" y="400" width="50" height="20" as="geometry"/>
                </mxCell>
                <mxCell id="8NPhE_IGq8rDWJXMzZpj-13" value="file1" style="text;html=1;resizable=0;points=[];autosize=1;align=center;verticalAlign=top;spacingTop=-4;fontSize=16;fontColor=#000000;" parent="8NPhE_IGq8rDWJXMzZpj-1" vertex="1">
                    <mxGeometry x="735" y="400" width="50" height="20" as="geometry"/>
                </mxCell>
                <mxCell id="8NPhE_IGq8rDWJXMzZpj-14" value="&lt;font style=&quot;font-size: 12px&quot;&gt;file0&amp;nbsp; &amp;nbsp;file1&lt;/font&gt;" style="strokeWidth=2;html=1;shape=mxgraph.flowchart.extract_or_measurement;whiteSpace=wrap;fontSize=24;strokeColor=none;fillColor=#008a00;fontColor=#ffffff;verticalAlign=bottom;" parent="8NPhE_IGq8rDWJXMzZpj-1" vertex="1">
                    <mxGeometry x="1040" y="26" width="120" height="120" as="geometry"/>
                </mxCell>
                <mxCell id="8NPhE_IGq8rDWJXMzZpj-15" value="this is file0" style="rounded=1;whiteSpace=wrap;html=1;absoluteArcSize=1;arcSize=14;strokeWidth=2;fontSize=12;fillColor=#1ba1e2;fontColor=#ffffff;strokeColor=none;" parent="8NPhE_IGq8rDWJXMzZpj-1" vertex="1">
                    <mxGeometry x="1239" y="279.7999267578125" width="120" height="120" as="geometry"/>
                </mxCell>
                <mxCell id="8NPhE_IGq8rDWJXMzZpj-16" value="this is file1" style="rounded=1;whiteSpace=wrap;html=1;absoluteArcSize=1;arcSize=14;strokeWidth=2;fontSize=12;fillColor=#1ba1e2;fontColor=#ffffff;strokeColor=none;" parent="8NPhE_IGq8rDWJXMzZpj-1" vertex="1">
                    <mxGeometry x="1440" y="279.7999267578125" width="120" height="120" as="geometry"/>
                </mxCell>
                <mxCell id="8NPhE_IGq8rDWJXMzZpj-17" style="edgeStyle=none;rounded=0;orthogonalLoop=1;jettySize=auto;html=1;entryX=0.5;entryY=0;entryDx=0;entryDy=0;dashed=1;fontSize=16;fontColor=#000000;exitX=0.5;exitY=1;exitDx=0;exitDy=0;exitPerimeter=0;" parent="8NPhE_IGq8rDWJXMzZpj-1" source="8NPhE_IGq8rDWJXMzZpj-19" target="8NPhE_IGq8rDWJXMzZpj-15" edge="1">
                    <mxGeometry relative="1" as="geometry"/>
                </mxCell>
                <mxCell id="8NPhE_IGq8rDWJXMzZpj-18" style="edgeStyle=none;rounded=0;orthogonalLoop=1;jettySize=auto;html=1;entryX=0.5;entryY=0;entryDx=0;entryDy=0;dashed=1;fontSize=16;fontColor=#000000;exitX=0.5;exitY=1;exitDx=0;exitDy=0;exitPerimeter=0;" parent="8NPhE_IGq8rDWJXMzZpj-1" source="8NPhE_IGq8rDWJXMzZpj-19" target="8NPhE_IGq8rDWJXMzZpj-16" edge="1">
                    <mxGeometry relative="1" as="geometry"/>
                </mxCell>
                <mxCell id="8NPhE_IGq8rDWJXMzZpj-19" value="" style="strokeWidth=2;html=1;shape=mxgraph.flowchart.extract_or_measurement;whiteSpace=wrap;fontSize=24;strokeColor=none;fillColor=#008a00;fontColor=#ffffff;verticalAlign=bottom;" parent="8NPhE_IGq8rDWJXMzZpj-1" vertex="1">
                    <mxGeometry x="1360" y="120" width="80" height="80" as="geometry"/>
                </mxCell>
                <mxCell id="8NPhE_IGq8rDWJXMzZpj-20" value="" style="edgeStyle=none;rounded=0;orthogonalLoop=1;jettySize=auto;html=1;dashed=1;fontSize=16;fontColor=#000000;entryX=0.5;entryY=0;entryDx=0;entryDy=0;entryPerimeter=0;" parent="8NPhE_IGq8rDWJXMzZpj-1" source="8NPhE_IGq8rDWJXMzZpj-21" target="8NPhE_IGq8rDWJXMzZpj-19" edge="1">
                    <mxGeometry relative="1" as="geometry"/>
                </mxCell>
                <mxCell id="8NPhE_IGq8rDWJXMzZpj-21" value="" style="ellipse;whiteSpace=wrap;html=1;aspect=fixed;fontSize=24;fillColor=#76608a;fontColor=#ffffff;strokeColor=none;" parent="8NPhE_IGq8rDWJXMzZpj-1" vertex="1">
                    <mxGeometry x="1360" y="-0.5" width="80" height="80" as="geometry"/>
                </mxCell>
                <mxCell id="8NPhE_IGq8rDWJXMzZpj-22" value="" style="edgeStyle=none;rounded=0;orthogonalLoop=1;jettySize=auto;html=1;dashed=1;fontSize=16;fontColor=#000000;" parent="8NPhE_IGq8rDWJXMzZpj-1" source="8NPhE_IGq8rDWJXMzZpj-23" target="8NPhE_IGq8rDWJXMzZpj-21" edge="1">
                    <mxGeometry relative="1" as="geometry"/>
                </mxCell>
                <mxCell id="8NPhE_IGq8rDWJXMzZpj-23" value="&lt;font style=&quot;font-size: 18px&quot;&gt;master&lt;/font&gt;" style="rounded=1;whiteSpace=wrap;html=1;fontSize=24;fillColor=#fa6800;fontColor=#000000;strokeColor=none;verticalAlign=top;align=center;" parent="8NPhE_IGq8rDWJXMzZpj-1" vertex="1">
                    <mxGeometry x="1480" y="19.5" width="80" height="40" as="geometry"/>
                </mxCell>
                <mxCell id="8NPhE_IGq8rDWJXMzZpj-24" value="&amp;nbsp;9120ce" style="text;html=1;resizable=0;points=[];autosize=1;align=center;verticalAlign=top;spacingTop=-4;fontSize=12;fontColor=#000000;" parent="8NPhE_IGq8rDWJXMzZpj-1" vertex="1">
                    <mxGeometry x="1274" y="400" width="60" height="20" as="geometry"/>
                </mxCell>
                <mxCell id="8NPhE_IGq8rDWJXMzZpj-25" value="433eb1" style="text;html=1;resizable=0;points=[];autosize=1;align=center;verticalAlign=top;spacingTop=-4;fontSize=12;fontColor=#000000;" parent="8NPhE_IGq8rDWJXMzZpj-1" vertex="1">
                    <mxGeometry x="1470" y="400" width="60" height="20" as="geometry"/>
                </mxCell>
                <mxCell id="OcQXIil4fyxlh5gIyBxA-0" style="edgeStyle=orthogonalEdgeStyle;curved=1;rounded=0;orthogonalLoop=1;jettySize=auto;html=1;exitX=0.5;exitY=0;exitDx=0;exitDy=0;entryX=0.5;entryY=0;entryDx=0;entryDy=0;fontSize=12;fontColor=#000000;strokeWidth=3;" parent="8NPhE_IGq8rDWJXMzZpj-1" source="8NPhE_IGq8rDWJXMzZpj-26" target="8NPhE_IGq8rDWJXMzZpj-8" edge="1">
                    <mxGeometry relative="1" as="geometry">
                        <Array as="points">
                            <mxPoint x="900" y="231.5"/>
                            <mxPoint x="760" y="231.5"/>
                        </Array>
                    </mxGeometry>
                </mxCell>
                <mxCell id="8NPhE_IGq8rDWJXMzZpj-26" value="this is file1" style="rounded=1;whiteSpace=wrap;html=1;absoluteArcSize=1;arcSize=14;strokeWidth=2;fontSize=12;fillColor=#b1ddf0;strokeColor=none;" parent="8NPhE_IGq8rDWJXMzZpj-1" vertex="1">
                    <mxGeometry x="840" y="281.5" width="120" height="120" as="geometry"/>
                </mxCell>
                <mxCell id="OcQXIil4fyxlh5gIyBxA-1" value="Edit file1" style="text;html=1;strokeColor=none;fillColor=none;align=center;verticalAlign=middle;whiteSpace=wrap;rounded=0;dashed=1;fontSize=14;fontColor=#000000;fontStyle=1" parent="8NPhE_IGq8rDWJXMzZpj-1" vertex="1">
                    <mxGeometry x="790" y="207.5" width="80" height="20" as="geometry"/>
                </mxCell>
            </root>
        </mxGraphModel>
    </diagram>
    <diagram name="index3" id="HfKSOTBt9D26EjlTjU1O">
        <mxGraphModel dx="2062" dy="2301" grid="1" gridSize="10" guides="1" tooltips="1" connect="1" arrows="1" fold="1" page="1" pageScale="1" pageWidth="850" pageHeight="1100" math="0" shadow="0">
            <root>
                <mxCell id="maQZXLroRq-nToQMI_r7-0"/>
                <mxCell id="maQZXLroRq-nToQMI_r7-1" parent="maQZXLroRq-nToQMI_r7-0"/>
                <mxCell id="maQZXLroRq-nToQMI_r7-2" value="Object store" style="rounded=0;whiteSpace=wrap;html=1;strokeWidth=2;fillColor=#cdeb8b;fontSize=16;align=left;verticalAlign=top;fontStyle=1;dashed=1;strokeColor=none;" parent="maQZXLroRq-nToQMI_r7-1" vertex="1">
                    <mxGeometry x="1040" y="-40" width="560" height="480" as="geometry"/>
                </mxCell>
                <mxCell id="maQZXLroRq-nToQMI_r7-3" value="Index" style="rounded=0;whiteSpace=wrap;html=1;strokeWidth=2;fillColor=#dae8fc;fontSize=16;align=left;verticalAlign=top;fontStyle=1;strokeColor=none;dashed=1;" parent="maQZXLroRq-nToQMI_r7-1" vertex="1">
                    <mxGeometry x="840" y="-40" width="200" height="480" as="geometry"/>
                </mxCell>
                <mxCell id="maQZXLroRq-nToQMI_r7-4" style="edgeStyle=none;rounded=0;orthogonalLoop=1;jettySize=auto;html=1;entryX=0.5;entryY=0;entryDx=0;entryDy=0;fontSize=16;fontColor=#000000;exitX=0.631;exitY=0.995;exitDx=0;exitDy=0;exitPerimeter=0;strokeWidth=3;" parent="maQZXLroRq-nToQMI_r7-1" source="maQZXLroRq-nToQMI_r7-14" target="rInSMkPmvq_X2kD7e8YR-0" edge="1">
                    <mxGeometry relative="1" as="geometry"/>
                </mxCell>
                <mxCell id="maQZXLroRq-nToQMI_r7-5" style="edgeStyle=none;rounded=0;orthogonalLoop=1;jettySize=auto;html=1;entryX=0.5;entryY=0;entryDx=0;entryDy=0;dashed=1;fontSize=16;fontColor=#000000;exitX=0.377;exitY=1.013;exitDx=0;exitDy=0;exitPerimeter=0;" parent="maQZXLroRq-nToQMI_r7-1" source="maQZXLroRq-nToQMI_r7-14" target="maQZXLroRq-nToQMI_r7-15" edge="1">
                    <mxGeometry relative="1" as="geometry"/>
                </mxCell>
                <mxCell id="maQZXLroRq-nToQMI_r7-6" value="Working directory" style="rounded=0;whiteSpace=wrap;html=1;strokeWidth=2;fillColor=#f8cecc;fontSize=16;align=left;verticalAlign=top;fontStyle=1;dashed=1;strokeColor=none;" parent="maQZXLroRq-nToQMI_r7-1" vertex="1">
                    <mxGeometry x="480" y="-40" width="360" height="480" as="geometry"/>
                </mxCell>
                <mxCell id="maQZXLroRq-nToQMI_r7-7" value="this is file0" style="rounded=1;whiteSpace=wrap;html=1;absoluteArcSize=1;arcSize=14;strokeWidth=2;fontSize=12;fillColor=#1ba1e2;fontColor=#ffffff;strokeColor=none;" parent="maQZXLroRq-nToQMI_r7-1" vertex="1">
                    <mxGeometry x="520" y="280" width="120" height="120" as="geometry"/>
                </mxCell>
                <mxCell id="rInSMkPmvq_X2kD7e8YR-1" style="edgeStyle=orthogonalEdgeStyle;curved=1;rounded=0;orthogonalLoop=1;jettySize=auto;html=1;exitX=1;exitY=0.5;exitDx=0;exitDy=0;entryX=0;entryY=0.5;entryDx=0;entryDy=0;fontSize=14;fontColor=#000000;strokeWidth=3;" parent="maQZXLroRq-nToQMI_r7-1" source="maQZXLroRq-nToQMI_r7-8" target="rInSMkPmvq_X2kD7e8YR-0" edge="1">
                    <mxGeometry relative="1" as="geometry"/>
                </mxCell>
                <mxCell id="maQZXLroRq-nToQMI_r7-8" value="this is file1, modified" style="rounded=1;whiteSpace=wrap;html=1;absoluteArcSize=1;arcSize=14;strokeWidth=2;fontSize=12;fillColor=#1ba1e2;fontColor=#ffffff;strokeColor=none;" parent="maQZXLroRq-nToQMI_r7-1" vertex="1">
                    <mxGeometry x="660" y="280" width="120" height="120" as="geometry"/>
                </mxCell>
                <mxCell id="maQZXLroRq-nToQMI_r7-9" style="edgeStyle=none;rounded=0;orthogonalLoop=1;jettySize=auto;html=1;entryX=0.5;entryY=0;entryDx=0;entryDy=0;dashed=1;fontSize=12;fontColor=#000000;" parent="maQZXLroRq-nToQMI_r7-1" source="maQZXLroRq-nToQMI_r7-11" target="maQZXLroRq-nToQMI_r7-7" edge="1">
                    <mxGeometry relative="1" as="geometry"/>
                </mxCell>
                <mxCell id="maQZXLroRq-nToQMI_r7-10" style="edgeStyle=none;rounded=0;orthogonalLoop=1;jettySize=auto;html=1;entryX=0.5;entryY=0;entryDx=0;entryDy=0;dashed=1;fontSize=12;fontColor=#000000;" parent="maQZXLroRq-nToQMI_r7-1" source="maQZXLroRq-nToQMI_r7-11" target="maQZXLroRq-nToQMI_r7-8" edge="1">
                    <mxGeometry relative="1" as="geometry"/>
                </mxCell>
                <mxCell id="maQZXLroRq-nToQMI_r7-11" value="Project" style="text;html=1;resizable=0;points=[];autosize=1;align=left;verticalAlign=top;spacingTop=-4;fontSize=16;fontColor=#000000;fontStyle=1" parent="maQZXLroRq-nToQMI_r7-1" vertex="1">
                    <mxGeometry x="635" y="49.5" width="50" height="20" as="geometry"/>
                </mxCell>
                <mxCell id="maQZXLroRq-nToQMI_r7-12" value="file0" style="text;html=1;resizable=0;points=[];autosize=1;align=center;verticalAlign=top;spacingTop=-4;fontSize=16;fontColor=#000000;" parent="maQZXLroRq-nToQMI_r7-1" vertex="1">
                    <mxGeometry x="555" y="400" width="50" height="20" as="geometry"/>
                </mxCell>
                <mxCell id="maQZXLroRq-nToQMI_r7-13" value="file1" style="text;html=1;resizable=0;points=[];autosize=1;align=center;verticalAlign=top;spacingTop=-4;fontSize=16;fontColor=#000000;" parent="maQZXLroRq-nToQMI_r7-1" vertex="1">
                    <mxGeometry x="697.5" y="400" width="50" height="20" as="geometry"/>
                </mxCell>
                <mxCell id="maQZXLroRq-nToQMI_r7-14" value="&lt;font style=&quot;font-size: 12px&quot;&gt;file0&amp;nbsp; &amp;nbsp;file1&lt;/font&gt;" style="strokeWidth=2;html=1;shape=mxgraph.flowchart.extract_or_measurement;whiteSpace=wrap;fontSize=24;strokeColor=none;fillColor=#008a00;fontColor=#ffffff;verticalAlign=bottom;" parent="maQZXLroRq-nToQMI_r7-1" vertex="1">
                    <mxGeometry x="882.5" y="26" width="120" height="120" as="geometry"/>
                </mxCell>
                <mxCell id="maQZXLroRq-nToQMI_r7-15" value="this is file0" style="rounded=1;whiteSpace=wrap;html=1;absoluteArcSize=1;arcSize=14;strokeWidth=2;fontSize=12;fillColor=#1ba1e2;fontColor=#ffffff;strokeColor=none;" parent="maQZXLroRq-nToQMI_r7-1" vertex="1">
                    <mxGeometry x="1260" y="279.7999267578125" width="120" height="120" as="geometry"/>
                </mxCell>
                <mxCell id="maQZXLroRq-nToQMI_r7-16" value="this is file1" style="rounded=1;whiteSpace=wrap;html=1;absoluteArcSize=1;arcSize=14;strokeWidth=2;fontSize=12;fillColor=#1ba1e2;fontColor=#ffffff;strokeColor=none;" parent="maQZXLroRq-nToQMI_r7-1" vertex="1">
                    <mxGeometry x="1440" y="279.7999267578125" width="120" height="120" as="geometry"/>
                </mxCell>
                <mxCell id="maQZXLroRq-nToQMI_r7-17" style="edgeStyle=none;rounded=0;orthogonalLoop=1;jettySize=auto;html=1;entryX=0.5;entryY=0;entryDx=0;entryDy=0;dashed=1;fontSize=16;fontColor=#000000;exitX=0.5;exitY=1;exitDx=0;exitDy=0;exitPerimeter=0;" parent="maQZXLroRq-nToQMI_r7-1" source="maQZXLroRq-nToQMI_r7-19" target="maQZXLroRq-nToQMI_r7-15" edge="1">
                    <mxGeometry relative="1" as="geometry"/>
                </mxCell>
                <mxCell id="maQZXLroRq-nToQMI_r7-18" style="edgeStyle=none;rounded=0;orthogonalLoop=1;jettySize=auto;html=1;entryX=0.5;entryY=0;entryDx=0;entryDy=0;dashed=1;fontSize=16;fontColor=#000000;exitX=0.5;exitY=1;exitDx=0;exitDy=0;exitPerimeter=0;" parent="maQZXLroRq-nToQMI_r7-1" source="maQZXLroRq-nToQMI_r7-19" target="maQZXLroRq-nToQMI_r7-16" edge="1">
                    <mxGeometry relative="1" as="geometry"/>
                </mxCell>
                <mxCell id="maQZXLroRq-nToQMI_r7-19" value="" style="strokeWidth=2;html=1;shape=mxgraph.flowchart.extract_or_measurement;whiteSpace=wrap;fontSize=24;strokeColor=none;fillColor=#008a00;fontColor=#ffffff;verticalAlign=bottom;" parent="maQZXLroRq-nToQMI_r7-1" vertex="1">
                    <mxGeometry x="1360" y="120" width="80" height="80" as="geometry"/>
                </mxCell>
                <mxCell id="maQZXLroRq-nToQMI_r7-20" value="" style="edgeStyle=none;rounded=0;orthogonalLoop=1;jettySize=auto;html=1;dashed=1;fontSize=16;fontColor=#000000;entryX=0.5;entryY=0;entryDx=0;entryDy=0;entryPerimeter=0;" parent="maQZXLroRq-nToQMI_r7-1" source="maQZXLroRq-nToQMI_r7-21" target="maQZXLroRq-nToQMI_r7-19" edge="1">
                    <mxGeometry relative="1" as="geometry"/>
                </mxCell>
                <mxCell id="maQZXLroRq-nToQMI_r7-21" value="" style="ellipse;whiteSpace=wrap;html=1;aspect=fixed;fontSize=24;fillColor=#76608a;fontColor=#ffffff;strokeColor=none;" parent="maQZXLroRq-nToQMI_r7-1" vertex="1">
                    <mxGeometry x="1360" y="-0.5" width="80" height="80" as="geometry"/>
                </mxCell>
                <mxCell id="maQZXLroRq-nToQMI_r7-22" value="" style="edgeStyle=none;rounded=0;orthogonalLoop=1;jettySize=auto;html=1;dashed=1;fontSize=16;fontColor=#000000;" parent="maQZXLroRq-nToQMI_r7-1" source="maQZXLroRq-nToQMI_r7-23" target="maQZXLroRq-nToQMI_r7-21" edge="1">
                    <mxGeometry relative="1" as="geometry"/>
                </mxCell>
                <mxCell id="maQZXLroRq-nToQMI_r7-23" value="&lt;font style=&quot;font-size: 18px&quot;&gt;master&lt;/font&gt;" style="rounded=1;whiteSpace=wrap;html=1;fontSize=24;fillColor=#fa6800;fontColor=#000000;strokeColor=none;verticalAlign=top;align=center;" parent="maQZXLroRq-nToQMI_r7-1" vertex="1">
                    <mxGeometry x="1480" y="19.5" width="80" height="40" as="geometry"/>
                </mxCell>
                <mxCell id="maQZXLroRq-nToQMI_r7-24" value="&amp;nbsp;9120ce" style="text;html=1;resizable=0;points=[];autosize=1;align=center;verticalAlign=top;spacingTop=-4;fontSize=12;fontColor=#000000;" parent="maQZXLroRq-nToQMI_r7-1" vertex="1">
                    <mxGeometry x="1290" y="400" width="60" height="20" as="geometry"/>
                </mxCell>
                <mxCell id="maQZXLroRq-nToQMI_r7-25" value="433eb1" style="text;html=1;resizable=0;points=[];autosize=1;align=center;verticalAlign=top;spacingTop=-4;fontSize=12;fontColor=#000000;" parent="maQZXLroRq-nToQMI_r7-1" vertex="1">
                    <mxGeometry x="1470" y="400" width="60" height="20" as="geometry"/>
                </mxCell>
                <mxCell id="rInSMkPmvq_X2kD7e8YR-0" value="this is file1, modified" style="rounded=1;whiteSpace=wrap;html=1;absoluteArcSize=1;arcSize=14;strokeWidth=2;fontSize=12;fillColor=#1ba1e2;fontColor=#ffffff;strokeColor=none;" parent="maQZXLroRq-nToQMI_r7-1" vertex="1">
                    <mxGeometry x="1079.5" y="280" width="120" height="120" as="geometry"/>
                </mxCell>
                <mxCell id="YtsEVmvVKwHdX9H3PenH-0" value="1. Add file1 to object store" style="text;html=1;strokeColor=none;fillColor=none;align=center;verticalAlign=middle;whiteSpace=wrap;rounded=0;dashed=1;fontSize=14;fontColor=#000000;fontStyle=1" parent="maQZXLroRq-nToQMI_r7-1" vertex="1">
                    <mxGeometry x="845" y="350" width="190" height="20" as="geometry"/>
                </mxCell>
                <mxCell id="YtsEVmvVKwHdX9H3PenH-2" value="2. Update index" style="text;html=1;strokeColor=none;fillColor=none;align=center;verticalAlign=middle;whiteSpace=wrap;rounded=0;dashed=1;fontSize=14;fontColor=#000000;fontStyle=1" parent="maQZXLroRq-nToQMI_r7-1" vertex="1">
                    <mxGeometry x="915" y="200" width="110" height="20" as="geometry"/>
                </mxCell>
                <mxCell id="7t4_EQ-3BMjnhFjea-Vg-1" value="3d005e" style="text;html=1;resizable=0;points=[];autosize=1;align=center;verticalAlign=top;spacingTop=-4;fontSize=12;fontColor=#000000;" parent="maQZXLroRq-nToQMI_r7-1" vertex="1">
                    <mxGeometry x="1110" y="400" width="60" height="20" as="geometry"/>
                </mxCell>
            </root>
        </mxGraphModel>
    </diagram>
    <diagram name="index4" id="EecwJ78hKqHbyKjSwSbM">
        <mxGraphModel dx="2062" dy="2301" grid="1" gridSize="10" guides="1" tooltips="1" connect="1" arrows="1" fold="1" page="1" pageScale="1" pageWidth="850" pageHeight="1100" math="0" shadow="0">
            <root>
                <mxCell id="IHkrrVQ1pvvQJZlW4NDL-0"/>
                <mxCell id="IHkrrVQ1pvvQJZlW4NDL-1" parent="IHkrrVQ1pvvQJZlW4NDL-0"/>
                <mxCell id="IHkrrVQ1pvvQJZlW4NDL-2" value="Object store" style="rounded=0;whiteSpace=wrap;html=1;strokeWidth=2;fillColor=#cdeb8b;fontSize=16;align=left;verticalAlign=top;fontStyle=1;dashed=1;strokeColor=none;" parent="IHkrrVQ1pvvQJZlW4NDL-1" vertex="1">
                    <mxGeometry x="1040" y="-40" width="560" height="480" as="geometry"/>
                </mxCell>
                <mxCell id="IHkrrVQ1pvvQJZlW4NDL-3" value="Index" style="rounded=0;whiteSpace=wrap;html=1;strokeWidth=2;fillColor=#dae8fc;fontSize=16;align=left;verticalAlign=top;fontStyle=1;strokeColor=none;dashed=1;" parent="IHkrrVQ1pvvQJZlW4NDL-1" vertex="1">
                    <mxGeometry x="840" y="-40" width="200" height="480" as="geometry"/>
                </mxCell>
                <mxCell id="IHkrrVQ1pvvQJZlW4NDL-5" style="edgeStyle=none;rounded=0;orthogonalLoop=1;jettySize=auto;html=1;entryX=0.5;entryY=0;entryDx=0;entryDy=0;dashed=1;fontSize=16;fontColor=#000000;exitX=0.377;exitY=1.013;exitDx=0;exitDy=0;exitPerimeter=0;" parent="IHkrrVQ1pvvQJZlW4NDL-1" source="IHkrrVQ1pvvQJZlW4NDL-15" target="IHkrrVQ1pvvQJZlW4NDL-16" edge="1">
                    <mxGeometry relative="1" as="geometry"/>
                </mxCell>
                <mxCell id="IHkrrVQ1pvvQJZlW4NDL-6" value="Working directory" style="rounded=0;whiteSpace=wrap;html=1;strokeWidth=2;fillColor=#f8cecc;fontSize=16;align=left;verticalAlign=top;fontStyle=1;dashed=1;strokeColor=none;" parent="IHkrrVQ1pvvQJZlW4NDL-1" vertex="1">
                    <mxGeometry x="480" y="-40" width="360" height="480" as="geometry"/>
                </mxCell>
                <mxCell id="IHkrrVQ1pvvQJZlW4NDL-7" value="this is file0" style="rounded=1;whiteSpace=wrap;html=1;absoluteArcSize=1;arcSize=14;strokeWidth=2;fontSize=12;fillColor=#1ba1e2;fontColor=#ffffff;strokeColor=none;" parent="IHkrrVQ1pvvQJZlW4NDL-1" vertex="1">
                    <mxGeometry x="520" y="280" width="120" height="120" as="geometry"/>
                </mxCell>
                <mxCell id="IHkrrVQ1pvvQJZlW4NDL-9" value="this is file1, modified" style="rounded=1;whiteSpace=wrap;html=1;absoluteArcSize=1;arcSize=14;strokeWidth=2;fontSize=12;fillColor=#1ba1e2;fontColor=#ffffff;strokeColor=none;" parent="IHkrrVQ1pvvQJZlW4NDL-1" vertex="1">
                    <mxGeometry x="680" y="280" width="120" height="120" as="geometry"/>
                </mxCell>
                <mxCell id="IHkrrVQ1pvvQJZlW4NDL-10" style="edgeStyle=none;rounded=0;orthogonalLoop=1;jettySize=auto;html=1;entryX=0.5;entryY=0;entryDx=0;entryDy=0;dashed=1;fontSize=12;fontColor=#000000;" parent="IHkrrVQ1pvvQJZlW4NDL-1" source="IHkrrVQ1pvvQJZlW4NDL-12" target="IHkrrVQ1pvvQJZlW4NDL-7" edge="1">
                    <mxGeometry relative="1" as="geometry"/>
                </mxCell>
                <mxCell id="IHkrrVQ1pvvQJZlW4NDL-11" style="edgeStyle=none;rounded=0;orthogonalLoop=1;jettySize=auto;html=1;entryX=0.5;entryY=0;entryDx=0;entryDy=0;dashed=1;fontSize=12;fontColor=#000000;" parent="IHkrrVQ1pvvQJZlW4NDL-1" source="IHkrrVQ1pvvQJZlW4NDL-12" target="IHkrrVQ1pvvQJZlW4NDL-9" edge="1">
                    <mxGeometry relative="1" as="geometry"/>
                </mxCell>
                <mxCell id="IHkrrVQ1pvvQJZlW4NDL-12" value="Project" style="text;html=1;resizable=0;points=[];autosize=1;align=left;verticalAlign=top;spacingTop=-4;fontSize=16;fontColor=#000000;fontStyle=1" parent="IHkrrVQ1pvvQJZlW4NDL-1" vertex="1">
                    <mxGeometry x="655" y="49.5" width="50" height="20" as="geometry"/>
                </mxCell>
                <mxCell id="IHkrrVQ1pvvQJZlW4NDL-13" value="file0" style="text;html=1;resizable=0;points=[];autosize=1;align=center;verticalAlign=top;spacingTop=-4;fontSize=16;fontColor=#000000;" parent="IHkrrVQ1pvvQJZlW4NDL-1" vertex="1">
                    <mxGeometry x="555" y="400" width="50" height="20" as="geometry"/>
                </mxCell>
                <mxCell id="IHkrrVQ1pvvQJZlW4NDL-14" value="file1" style="text;html=1;resizable=0;points=[];autosize=1;align=center;verticalAlign=top;spacingTop=-4;fontSize=16;fontColor=#000000;" parent="IHkrrVQ1pvvQJZlW4NDL-1" vertex="1">
                    <mxGeometry x="717.5" y="400" width="50" height="20" as="geometry"/>
                </mxCell>
                <mxCell id="IHkrrVQ1pvvQJZlW4NDL-32" style="rounded=0;orthogonalLoop=1;jettySize=auto;html=1;exitX=0.78;exitY=0.5;exitDx=0;exitDy=0;exitPerimeter=0;strokeWidth=3;fontSize=14;fontColor=#000000;entryX=0.22;entryY=0.5;entryDx=0;entryDy=0;entryPerimeter=0;" parent="IHkrrVQ1pvvQJZlW4NDL-1" source="IHkrrVQ1pvvQJZlW4NDL-15" target="IHkrrVQ1pvvQJZlW4NDL-31" edge="1">
                    <mxGeometry relative="1" as="geometry"/>
                </mxCell>
                <mxCell id="IHkrrVQ1pvvQJZlW4NDL-15" value="&lt;font style=&quot;font-size: 12px&quot;&gt;file0&amp;nbsp; &amp;nbsp;file1&lt;/font&gt;" style="strokeWidth=2;html=1;shape=mxgraph.flowchart.extract_or_measurement;whiteSpace=wrap;fontSize=24;strokeColor=none;fillColor=#008a00;fontColor=#ffffff;verticalAlign=bottom;" parent="IHkrrVQ1pvvQJZlW4NDL-1" vertex="1">
                    <mxGeometry x="882.5" y="26" width="120" height="120" as="geometry"/>
                </mxCell>
                <mxCell id="IHkrrVQ1pvvQJZlW4NDL-16" value="this is file0" style="rounded=1;whiteSpace=wrap;html=1;absoluteArcSize=1;arcSize=14;strokeWidth=2;fontSize=12;fillColor=#1ba1e2;fontColor=#ffffff;strokeColor=none;" parent="IHkrrVQ1pvvQJZlW4NDL-1" vertex="1">
                    <mxGeometry x="1260" y="279.7999267578125" width="120" height="120" as="geometry"/>
                </mxCell>
                <mxCell id="IHkrrVQ1pvvQJZlW4NDL-17" value="this is file1" style="rounded=1;whiteSpace=wrap;html=1;absoluteArcSize=1;arcSize=14;strokeWidth=2;fontSize=12;fillColor=#1ba1e2;fontColor=#ffffff;strokeColor=none;" parent="IHkrrVQ1pvvQJZlW4NDL-1" vertex="1">
                    <mxGeometry x="1440" y="279.7999267578125" width="120" height="120" as="geometry"/>
                </mxCell>
                <mxCell id="IHkrrVQ1pvvQJZlW4NDL-18" style="edgeStyle=none;rounded=0;orthogonalLoop=1;jettySize=auto;html=1;entryX=0.5;entryY=0;entryDx=0;entryDy=0;dashed=1;fontSize=16;fontColor=#000000;exitX=0.5;exitY=1;exitDx=0;exitDy=0;exitPerimeter=0;" parent="IHkrrVQ1pvvQJZlW4NDL-1" source="IHkrrVQ1pvvQJZlW4NDL-20" target="IHkrrVQ1pvvQJZlW4NDL-16" edge="1">
                    <mxGeometry relative="1" as="geometry"/>
                </mxCell>
                <mxCell id="IHkrrVQ1pvvQJZlW4NDL-19" style="edgeStyle=none;rounded=0;orthogonalLoop=1;jettySize=auto;html=1;entryX=0.5;entryY=0;entryDx=0;entryDy=0;dashed=1;fontSize=16;fontColor=#000000;exitX=0.5;exitY=1;exitDx=0;exitDy=0;exitPerimeter=0;" parent="IHkrrVQ1pvvQJZlW4NDL-1" source="IHkrrVQ1pvvQJZlW4NDL-20" target="IHkrrVQ1pvvQJZlW4NDL-17" edge="1">
                    <mxGeometry relative="1" as="geometry"/>
                </mxCell>
                <mxCell id="IHkrrVQ1pvvQJZlW4NDL-20" value="" style="strokeWidth=2;html=1;shape=mxgraph.flowchart.extract_or_measurement;whiteSpace=wrap;fontSize=24;strokeColor=none;fillColor=#008a00;fontColor=#ffffff;verticalAlign=bottom;" parent="IHkrrVQ1pvvQJZlW4NDL-1" vertex="1">
                    <mxGeometry x="1460" y="122.5" width="80" height="80" as="geometry"/>
                </mxCell>
                <mxCell id="IHkrrVQ1pvvQJZlW4NDL-21" value="" style="edgeStyle=none;rounded=0;orthogonalLoop=1;jettySize=auto;html=1;dashed=1;fontSize=16;fontColor=#000000;entryX=0.5;entryY=0;entryDx=0;entryDy=0;entryPerimeter=0;" parent="IHkrrVQ1pvvQJZlW4NDL-1" source="IHkrrVQ1pvvQJZlW4NDL-22" target="IHkrrVQ1pvvQJZlW4NDL-20" edge="1">
                    <mxGeometry relative="1" as="geometry"/>
                </mxCell>
                <mxCell id="IHkrrVQ1pvvQJZlW4NDL-22" value="" style="ellipse;whiteSpace=wrap;html=1;aspect=fixed;fontSize=24;fillColor=#76608a;fontColor=#ffffff;strokeColor=none;" parent="IHkrrVQ1pvvQJZlW4NDL-1" vertex="1">
                    <mxGeometry x="1460" y="2" width="80" height="80" as="geometry"/>
                </mxCell>
                <mxCell id="PrCmeznr4g7FGD-FOjWp-5" value="" style="edgeStyle=none;rounded=0;orthogonalLoop=1;jettySize=auto;html=1;dashed=1;strokeWidth=1;fontSize=14;fontColor=#000000;" parent="IHkrrVQ1pvvQJZlW4NDL-1" source="IHkrrVQ1pvvQJZlW4NDL-24" target="PrCmeznr4g7FGD-FOjWp-0" edge="1">
                    <mxGeometry relative="1" as="geometry"/>
                </mxCell>
                <mxCell id="IHkrrVQ1pvvQJZlW4NDL-24" value="&lt;font style=&quot;font-size: 18px&quot;&gt;master&lt;/font&gt;" style="rounded=1;whiteSpace=wrap;html=1;fontSize=24;fillColor=#fa6800;fontColor=#000000;strokeColor=none;verticalAlign=top;align=center;" parent="IHkrrVQ1pvvQJZlW4NDL-1" vertex="1">
                    <mxGeometry x="1094" y="19.5" width="80" height="40" as="geometry"/>
                </mxCell>
                <mxCell id="IHkrrVQ1pvvQJZlW4NDL-25" value="&amp;nbsp;9120ce" style="text;html=1;resizable=0;points=[];autosize=1;align=center;verticalAlign=top;spacingTop=-4;fontSize=12;fontColor=#000000;" parent="IHkrrVQ1pvvQJZlW4NDL-1" vertex="1">
                    <mxGeometry x="1290" y="400" width="60" height="20" as="geometry"/>
                </mxCell>
                <mxCell id="IHkrrVQ1pvvQJZlW4NDL-26" value="433eb1" style="text;html=1;resizable=0;points=[];autosize=1;align=center;verticalAlign=top;spacingTop=-4;fontSize=12;fontColor=#000000;" parent="IHkrrVQ1pvvQJZlW4NDL-1" vertex="1">
                    <mxGeometry x="1470" y="400" width="60" height="20" as="geometry"/>
                </mxCell>
                <mxCell id="IHkrrVQ1pvvQJZlW4NDL-27" value="this is file1, modified" style="rounded=1;whiteSpace=wrap;html=1;absoluteArcSize=1;arcSize=14;strokeWidth=2;fontSize=12;fillColor=#1ba1e2;fontColor=#ffffff;strokeColor=none;" parent="IHkrrVQ1pvvQJZlW4NDL-1" vertex="1">
                    <mxGeometry x="1079.5" y="280" width="120" height="120" as="geometry"/>
                </mxCell>
                <mxCell id="IHkrrVQ1pvvQJZlW4NDL-29" value="2. Make commit object" style="text;html=1;strokeColor=none;fillColor=none;align=center;verticalAlign=middle;whiteSpace=wrap;rounded=0;dashed=1;fontSize=14;fontColor=#000000;fontStyle=1" parent="IHkrrVQ1pvvQJZlW4NDL-1" vertex="1">
                    <mxGeometry x="1280" y="60" width="170" height="20" as="geometry"/>
                </mxCell>
                <mxCell id="IHkrrVQ1pvvQJZlW4NDL-30" value="3d005e" style="text;html=1;resizable=0;points=[];autosize=1;align=center;verticalAlign=top;spacingTop=-4;fontSize=12;fontColor=#000000;" parent="IHkrrVQ1pvvQJZlW4NDL-1" vertex="1">
                    <mxGeometry x="1110" y="400" width="60" height="20" as="geometry"/>
                </mxCell>
                <mxCell id="IHkrrVQ1pvvQJZlW4NDL-34" style="edgeStyle=none;rounded=0;orthogonalLoop=1;jettySize=auto;html=1;entryX=0.5;entryY=0;entryDx=0;entryDy=0;strokeWidth=1;fontSize=14;fontColor=#000000;dashed=1;exitX=0.5;exitY=1;exitDx=0;exitDy=0;exitPerimeter=0;" parent="IHkrrVQ1pvvQJZlW4NDL-1" source="IHkrrVQ1pvvQJZlW4NDL-31" target="IHkrrVQ1pvvQJZlW4NDL-16" edge="1">
                    <mxGeometry relative="1" as="geometry"/>
                </mxCell>
                <mxCell id="PrCmeznr4g7FGD-FOjWp-10" style="edgeStyle=none;rounded=0;orthogonalLoop=1;jettySize=auto;html=1;entryX=0.5;entryY=0;entryDx=0;entryDy=0;dashed=1;strokeWidth=1;fontSize=14;fontColor=#000000;exitX=0.5;exitY=1;exitDx=0;exitDy=0;exitPerimeter=0;" parent="IHkrrVQ1pvvQJZlW4NDL-1" source="IHkrrVQ1pvvQJZlW4NDL-31" target="IHkrrVQ1pvvQJZlW4NDL-27" edge="1">
                    <mxGeometry relative="1" as="geometry"/>
                </mxCell>
                <mxCell id="IHkrrVQ1pvvQJZlW4NDL-31" value="" style="strokeWidth=2;html=1;shape=mxgraph.flowchart.extract_or_measurement;whiteSpace=wrap;fontSize=24;strokeColor=none;fillColor=#008a00;fontColor=#ffffff;verticalAlign=bottom;" parent="IHkrrVQ1pvvQJZlW4NDL-1" vertex="1">
                    <mxGeometry x="1199.5" y="120" width="80" height="80" as="geometry"/>
                </mxCell>
                <mxCell id="PrCmeznr4g7FGD-FOjWp-1" value="" style="edgeStyle=none;rounded=0;orthogonalLoop=1;jettySize=auto;html=1;dashed=1;strokeWidth=1;fontSize=14;fontColor=#000000;" parent="IHkrrVQ1pvvQJZlW4NDL-1" source="PrCmeznr4g7FGD-FOjWp-0" target="IHkrrVQ1pvvQJZlW4NDL-31" edge="1">
                    <mxGeometry relative="1" as="geometry"/>
                </mxCell>
                <mxCell id="PrCmeznr4g7FGD-FOjWp-13" style="edgeStyle=none;rounded=0;orthogonalLoop=1;jettySize=auto;html=1;entryX=0;entryY=0.5;entryDx=0;entryDy=0;strokeWidth=3;fontSize=14;fontColor=#000000;" parent="IHkrrVQ1pvvQJZlW4NDL-1" source="PrCmeznr4g7FGD-FOjWp-0" target="IHkrrVQ1pvvQJZlW4NDL-22" edge="1">
                    <mxGeometry relative="1" as="geometry"/>
                </mxCell>
                <mxCell id="PrCmeznr4g7FGD-FOjWp-0" value="" style="ellipse;whiteSpace=wrap;html=1;aspect=fixed;fontSize=24;fillColor=#76608a;fontColor=#ffffff;strokeColor=none;" parent="IHkrrVQ1pvvQJZlW4NDL-1" vertex="1">
                    <mxGeometry x="1199.5" y="-0.5" width="80" height="80" as="geometry"/>
                </mxCell>
                <mxCell id="PrCmeznr4g7FGD-FOjWp-2" value="1. Convert index into tree object" style="text;html=1;strokeColor=none;fillColor=none;align=center;verticalAlign=middle;whiteSpace=wrap;rounded=0;dashed=1;fontSize=14;fontColor=#000000;fontStyle=1" parent="IHkrrVQ1pvvQJZlW4NDL-1" vertex="1">
                    <mxGeometry x="1047.5" y="150" width="125" height="20" as="geometry"/>
                </mxCell>
                <mxCell id="PrCmeznr4g7FGD-FOjWp-9" value="3. Update branch ref" style="text;html=1;strokeColor=none;fillColor=none;align=center;verticalAlign=middle;whiteSpace=wrap;rounded=0;dashed=1;fontSize=14;fontColor=#000000;fontStyle=1" parent="IHkrrVQ1pvvQJZlW4NDL-1" vertex="1">
                    <mxGeometry x="1062.5" y="76" width="143" height="20" as="geometry"/>
                </mxCell>
            </root>
        </mxGraphModel>
    </diagram>
    <diagram name="diff" id="HdyXcjE5cWjY0kG9q3dJ">
        <mxGraphModel dx="1662" dy="1601" grid="1" gridSize="10" guides="1" tooltips="1" connect="1" arrows="1" fold="1" page="0" pageScale="1" pageWidth="850" pageHeight="1100" math="0" shadow="0">
            <root>
                <mxCell id="dhLoyjOVga8Z4-8CUAwj-0"/>
                <mxCell id="dhLoyjOVga8Z4-8CUAwj-1" parent="dhLoyjOVga8Z4-8CUAwj-0"/>
                <mxCell id="ZFuYuCiWWkNdk68MXFJa-0" value="Object store" style="rounded=0;whiteSpace=wrap;html=1;strokeWidth=2;fillColor=#cdeb8b;fontSize=16;align=left;verticalAlign=top;fontStyle=1;dashed=1;strokeColor=none;" parent="dhLoyjOVga8Z4-8CUAwj-1" vertex="1">
                    <mxGeometry x="1040" y="-40" width="560" height="480" as="geometry"/>
                </mxCell>
                <mxCell id="ZFuYuCiWWkNdk68MXFJa-1" value="Index" style="rounded=0;whiteSpace=wrap;html=1;strokeWidth=2;fillColor=#dae8fc;fontSize=16;align=left;verticalAlign=top;fontStyle=1;strokeColor=none;dashed=1;" parent="dhLoyjOVga8Z4-8CUAwj-1" vertex="1">
                    <mxGeometry x="840" y="-40" width="200" height="480" as="geometry"/>
                </mxCell>
                <mxCell id="ZFuYuCiWWkNdk68MXFJa-2" style="edgeStyle=none;rounded=0;orthogonalLoop=1;jettySize=auto;html=1;entryX=0.5;entryY=0;entryDx=0;entryDy=0;dashed=1;fontSize=16;fontColor=#000000;exitX=0.5;exitY=1;exitDx=0;exitDy=0;exitPerimeter=0;" parent="dhLoyjOVga8Z4-8CUAwj-1" source="ZFuYuCiWWkNdk68MXFJa-12" target="ZFuYuCiWWkNdk68MXFJa-13" edge="1">
                    <mxGeometry relative="1" as="geometry"/>
                </mxCell>
                <mxCell id="ZFuYuCiWWkNdk68MXFJa-3" value="Working directory" style="rounded=0;whiteSpace=wrap;html=1;strokeWidth=2;fillColor=#f8cecc;fontSize=16;align=left;verticalAlign=top;fontStyle=1;dashed=1;strokeColor=none;" parent="dhLoyjOVga8Z4-8CUAwj-1" vertex="1">
                    <mxGeometry x="480" y="-40" width="360" height="480" as="geometry"/>
                </mxCell>
                <mxCell id="ZFuYuCiWWkNdk68MXFJa-4" value="this is file0" style="rounded=1;whiteSpace=wrap;html=1;absoluteArcSize=1;arcSize=14;strokeWidth=2;fontSize=12;fillColor=#1ba1e2;fontColor=#ffffff;strokeColor=none;" parent="dhLoyjOVga8Z4-8CUAwj-1" vertex="1">
                    <mxGeometry x="520" y="280" width="120" height="120" as="geometry"/>
                </mxCell>
                <mxCell id="ZFuYuCiWWkNdk68MXFJa-5" value="this is file1, modified" style="rounded=1;whiteSpace=wrap;html=1;absoluteArcSize=1;arcSize=14;strokeWidth=2;fontSize=12;fillColor=#1ba1e2;fontColor=#ffffff;strokeColor=none;" parent="dhLoyjOVga8Z4-8CUAwj-1" vertex="1">
                    <mxGeometry x="680" y="280" width="120" height="120" as="geometry"/>
                </mxCell>
                <mxCell id="ZFuYuCiWWkNdk68MXFJa-6" style="edgeStyle=none;rounded=0;orthogonalLoop=1;jettySize=auto;html=1;entryX=0.5;entryY=0;entryDx=0;entryDy=0;dashed=1;fontSize=12;fontColor=#000000;" parent="dhLoyjOVga8Z4-8CUAwj-1" source="ZFuYuCiWWkNdk68MXFJa-8" target="ZFuYuCiWWkNdk68MXFJa-4" edge="1">
                    <mxGeometry relative="1" as="geometry"/>
                </mxCell>
                <mxCell id="ZFuYuCiWWkNdk68MXFJa-7" style="edgeStyle=none;rounded=0;orthogonalLoop=1;jettySize=auto;html=1;entryX=0.5;entryY=0;entryDx=0;entryDy=0;dashed=1;fontSize=12;fontColor=#000000;" parent="dhLoyjOVga8Z4-8CUAwj-1" source="ZFuYuCiWWkNdk68MXFJa-8" target="ZFuYuCiWWkNdk68MXFJa-5" edge="1">
                    <mxGeometry relative="1" as="geometry"/>
                </mxCell>
                <mxCell id="ZFuYuCiWWkNdk68MXFJa-8" value="Project" style="text;html=1;resizable=0;points=[];autosize=1;align=left;verticalAlign=top;spacingTop=-4;fontSize=16;fontColor=#000000;fontStyle=1" parent="dhLoyjOVga8Z4-8CUAwj-1" vertex="1">
                    <mxGeometry x="655" y="49.5" width="50" height="20" as="geometry"/>
                </mxCell>
                <mxCell id="ZFuYuCiWWkNdk68MXFJa-9" value="file0" style="text;html=1;resizable=0;points=[];autosize=1;align=center;verticalAlign=top;spacingTop=-4;fontSize=16;fontColor=#000000;" parent="dhLoyjOVga8Z4-8CUAwj-1" vertex="1">
                    <mxGeometry x="555" y="400" width="50" height="20" as="geometry"/>
                </mxCell>
                <mxCell id="ZFuYuCiWWkNdk68MXFJa-10" value="file1" style="text;html=1;resizable=0;points=[];autosize=1;align=center;verticalAlign=top;spacingTop=-4;fontSize=16;fontColor=#000000;" parent="dhLoyjOVga8Z4-8CUAwj-1" vertex="1">
                    <mxGeometry x="717.5" y="400" width="50" height="20" as="geometry"/>
                </mxCell>
                <mxCell id="ZFuYuCiWWkNdk68MXFJa-35" style="rounded=0;orthogonalLoop=1;jettySize=auto;html=1;exitX=0.5;exitY=1;exitDx=0;exitDy=0;exitPerimeter=0;dashed=1;entryX=0.5;entryY=0;entryDx=0;entryDy=0;" parent="dhLoyjOVga8Z4-8CUAwj-1" source="ZFuYuCiWWkNdk68MXFJa-12" target="ZFuYuCiWWkNdk68MXFJa-24" edge="1">
                    <mxGeometry relative="1" as="geometry"/>
                </mxCell>
                <mxCell id="ZFuYuCiWWkNdk68MXFJa-12" value="&lt;font style=&quot;font-size: 12px&quot;&gt;file0&amp;nbsp; &amp;nbsp;file1&lt;/font&gt;" style="strokeWidth=2;html=1;shape=mxgraph.flowchart.extract_or_measurement;whiteSpace=wrap;fontSize=24;strokeColor=none;fillColor=#008a00;fontColor=#ffffff;verticalAlign=bottom;" parent="dhLoyjOVga8Z4-8CUAwj-1" vertex="1">
                    <mxGeometry x="882.5" y="26" width="120" height="120" as="geometry"/>
                </mxCell>
                <mxCell id="ZFuYuCiWWkNdk68MXFJa-13" value="this is file0" style="rounded=1;whiteSpace=wrap;html=1;absoluteArcSize=1;arcSize=14;strokeWidth=2;fontSize=12;fillColor=#1ba1e2;fontColor=#ffffff;strokeColor=none;" parent="dhLoyjOVga8Z4-8CUAwj-1" vertex="1">
                    <mxGeometry x="1260" y="279.7999267578125" width="120" height="120" as="geometry"/>
                </mxCell>
                <mxCell id="ZFuYuCiWWkNdk68MXFJa-14" value="this is file1" style="rounded=1;whiteSpace=wrap;html=1;absoluteArcSize=1;arcSize=14;strokeWidth=2;fontSize=12;fillColor=#1ba1e2;fontColor=#ffffff;strokeColor=none;" parent="dhLoyjOVga8Z4-8CUAwj-1" vertex="1">
                    <mxGeometry x="1440" y="279.7999267578125" width="120" height="120" as="geometry"/>
                </mxCell>
                <mxCell id="ZFuYuCiWWkNdk68MXFJa-15" style="edgeStyle=none;rounded=0;orthogonalLoop=1;jettySize=auto;html=1;entryX=0.5;entryY=0;entryDx=0;entryDy=0;dashed=1;fontSize=16;fontColor=#000000;exitX=0.5;exitY=1;exitDx=0;exitDy=0;exitPerimeter=0;" parent="dhLoyjOVga8Z4-8CUAwj-1" source="ZFuYuCiWWkNdk68MXFJa-17" target="ZFuYuCiWWkNdk68MXFJa-13" edge="1">
                    <mxGeometry relative="1" as="geometry"/>
                </mxCell>
                <mxCell id="ZFuYuCiWWkNdk68MXFJa-16" style="edgeStyle=none;rounded=0;orthogonalLoop=1;jettySize=auto;html=1;entryX=0.5;entryY=0;entryDx=0;entryDy=0;dashed=1;fontSize=16;fontColor=#000000;exitX=0.5;exitY=1;exitDx=0;exitDy=0;exitPerimeter=0;" parent="dhLoyjOVga8Z4-8CUAwj-1" source="ZFuYuCiWWkNdk68MXFJa-17" target="ZFuYuCiWWkNdk68MXFJa-14" edge="1">
                    <mxGeometry relative="1" as="geometry"/>
                </mxCell>
                <mxCell id="ZFuYuCiWWkNdk68MXFJa-17" value="" style="strokeWidth=2;html=1;shape=mxgraph.flowchart.extract_or_measurement;whiteSpace=wrap;fontSize=24;strokeColor=none;fillColor=#008a00;fontColor=#ffffff;verticalAlign=bottom;" parent="dhLoyjOVga8Z4-8CUAwj-1" vertex="1">
                    <mxGeometry x="1460" y="122.5" width="80" height="80" as="geometry"/>
                </mxCell>
                <mxCell id="ZFuYuCiWWkNdk68MXFJa-18" value="" style="edgeStyle=none;rounded=0;orthogonalLoop=1;jettySize=auto;html=1;dashed=1;fontSize=16;fontColor=#000000;entryX=0.5;entryY=0;entryDx=0;entryDy=0;entryPerimeter=0;" parent="dhLoyjOVga8Z4-8CUAwj-1" source="ZFuYuCiWWkNdk68MXFJa-19" target="ZFuYuCiWWkNdk68MXFJa-17" edge="1">
                    <mxGeometry relative="1" as="geometry"/>
                </mxCell>
                <mxCell id="ZFuYuCiWWkNdk68MXFJa-19" value="" style="ellipse;whiteSpace=wrap;html=1;aspect=fixed;fontSize=24;fillColor=#76608a;fontColor=#ffffff;strokeColor=none;" parent="dhLoyjOVga8Z4-8CUAwj-1" vertex="1">
                    <mxGeometry x="1460" y="2" width="80" height="80" as="geometry"/>
                </mxCell>
                <mxCell id="ZFuYuCiWWkNdk68MXFJa-20" value="" style="edgeStyle=none;rounded=0;orthogonalLoop=1;jettySize=auto;html=1;dashed=1;strokeWidth=1;fontSize=14;fontColor=#000000;" parent="dhLoyjOVga8Z4-8CUAwj-1" source="ZFuYuCiWWkNdk68MXFJa-21" target="ZFuYuCiWWkNdk68MXFJa-32" edge="1">
                    <mxGeometry relative="1" as="geometry"/>
                </mxCell>
                <mxCell id="ZFuYuCiWWkNdk68MXFJa-21" value="&lt;font style=&quot;font-size: 18px&quot;&gt;master&lt;/font&gt;" style="rounded=1;whiteSpace=wrap;html=1;fontSize=24;fillColor=#fa6800;fontColor=#000000;strokeColor=none;verticalAlign=top;align=center;" parent="dhLoyjOVga8Z4-8CUAwj-1" vertex="1">
                    <mxGeometry x="1094" y="19.5" width="80" height="40" as="geometry"/>
                </mxCell>
                <mxCell id="ZFuYuCiWWkNdk68MXFJa-22" value="&amp;nbsp;9120ce" style="text;html=1;resizable=0;points=[];autosize=1;align=center;verticalAlign=top;spacingTop=-4;fontSize=12;fontColor=#000000;" parent="dhLoyjOVga8Z4-8CUAwj-1" vertex="1">
                    <mxGeometry x="1290" y="400" width="60" height="20" as="geometry"/>
                </mxCell>
                <mxCell id="ZFuYuCiWWkNdk68MXFJa-23" value="433eb1" style="text;html=1;resizable=0;points=[];autosize=1;align=center;verticalAlign=top;spacingTop=-4;fontSize=12;fontColor=#000000;" parent="dhLoyjOVga8Z4-8CUAwj-1" vertex="1">
                    <mxGeometry x="1470" y="400" width="60" height="20" as="geometry"/>
                </mxCell>
                <mxCell id="ZFuYuCiWWkNdk68MXFJa-24" value="this is file1, modified" style="rounded=1;whiteSpace=wrap;html=1;absoluteArcSize=1;arcSize=14;strokeWidth=2;fontSize=12;fillColor=#1ba1e2;fontColor=#ffffff;strokeColor=none;" parent="dhLoyjOVga8Z4-8CUAwj-1" vertex="1">
                    <mxGeometry x="1079.5" y="280" width="120" height="120" as="geometry"/>
                </mxCell>
                <mxCell id="ZFuYuCiWWkNdk68MXFJa-26" value="3d005e" style="text;html=1;resizable=0;points=[];autosize=1;align=center;verticalAlign=top;spacingTop=-4;fontSize=12;fontColor=#000000;" parent="dhLoyjOVga8Z4-8CUAwj-1" vertex="1">
                    <mxGeometry x="1110" y="400" width="60" height="20" as="geometry"/>
                </mxCell>
                <mxCell id="ZFuYuCiWWkNdk68MXFJa-27" style="edgeStyle=none;rounded=0;orthogonalLoop=1;jettySize=auto;html=1;entryX=0.5;entryY=0;entryDx=0;entryDy=0;strokeWidth=1;fontSize=14;fontColor=#000000;dashed=1;exitX=0.5;exitY=1;exitDx=0;exitDy=0;exitPerimeter=0;" parent="dhLoyjOVga8Z4-8CUAwj-1" source="ZFuYuCiWWkNdk68MXFJa-29" target="ZFuYuCiWWkNdk68MXFJa-13" edge="1">
                    <mxGeometry relative="1" as="geometry"/>
                </mxCell>
                <mxCell id="ZFuYuCiWWkNdk68MXFJa-28" style="edgeStyle=none;rounded=0;orthogonalLoop=1;jettySize=auto;html=1;entryX=0.5;entryY=0;entryDx=0;entryDy=0;dashed=1;strokeWidth=1;fontSize=14;fontColor=#000000;exitX=0.5;exitY=1;exitDx=0;exitDy=0;exitPerimeter=0;" parent="dhLoyjOVga8Z4-8CUAwj-1" source="ZFuYuCiWWkNdk68MXFJa-29" target="ZFuYuCiWWkNdk68MXFJa-24" edge="1">
                    <mxGeometry relative="1" as="geometry"/>
                </mxCell>
                <mxCell id="ZFuYuCiWWkNdk68MXFJa-29" value="" style="strokeWidth=2;html=1;shape=mxgraph.flowchart.extract_or_measurement;whiteSpace=wrap;fontSize=24;strokeColor=none;fillColor=#008a00;fontColor=#ffffff;verticalAlign=bottom;" parent="dhLoyjOVga8Z4-8CUAwj-1" vertex="1">
                    <mxGeometry x="1199.5" y="120" width="80" height="80" as="geometry"/>
                </mxCell>
                <mxCell id="ZFuYuCiWWkNdk68MXFJa-30" value="" style="edgeStyle=none;rounded=0;orthogonalLoop=1;jettySize=auto;html=1;dashed=1;strokeWidth=1;fontSize=14;fontColor=#000000;" parent="dhLoyjOVga8Z4-8CUAwj-1" source="ZFuYuCiWWkNdk68MXFJa-32" target="ZFuYuCiWWkNdk68MXFJa-29" edge="1">
                    <mxGeometry relative="1" as="geometry"/>
                </mxCell>
                <mxCell id="ZFuYuCiWWkNdk68MXFJa-32" value="" style="ellipse;whiteSpace=wrap;html=1;aspect=fixed;fontSize=24;fillColor=#76608a;fontColor=#ffffff;strokeColor=none;" parent="dhLoyjOVga8Z4-8CUAwj-1" vertex="1">
                    <mxGeometry x="1199.5" y="-0.5" width="80" height="80" as="geometry"/>
                </mxCell>
                <mxCell id="ZFuYuCiWWkNdk68MXFJa-38" value="" style="endArrow=classic;startArrow=classic;html=1;rounded=1;strokeColor=default;strokeWidth=3;entryX=0.5;entryY=0;entryDx=0;entryDy=0;entryPerimeter=0;" parent="dhLoyjOVga8Z4-8CUAwj-1" source="ZFuYuCiWWkNdk68MXFJa-8" target="ZFuYuCiWWkNdk68MXFJa-12" edge="1">
                    <mxGeometry width="50" height="50" relative="1" as="geometry">
                        <mxPoint x="720" y="70" as="sourcePoint"/>
                        <mxPoint x="740" y="-0.5" as="targetPoint"/>
                        <Array as="points">
                            <mxPoint x="800" y="10"/>
                        </Array>
                    </mxGeometry>
                </mxCell>
                <mxCell id="ZFuYuCiWWkNdk68MXFJa-39" value="git diff" style="text;html=1;align=center;verticalAlign=middle;resizable=0;points=[];autosize=1;strokeColor=none;fillColor=none;strokeWidth=4;fontSize=14;fontStyle=1" parent="dhLoyjOVga8Z4-8CUAwj-1" vertex="1">
                    <mxGeometry x="790" y="26" width="60" height="20" as="geometry"/>
                </mxCell>
                <mxCell id="ZFuYuCiWWkNdk68MXFJa-40" value="git diff HEAD" style="text;html=1;align=center;verticalAlign=middle;resizable=0;points=[];autosize=1;strokeColor=none;fillColor=none;strokeWidth=4;fontSize=14;fontStyle=1" parent="dhLoyjOVga8Z4-8CUAwj-1" vertex="1">
                    <mxGeometry x="890" y="230" width="100" height="20" as="geometry"/>
                </mxCell>
                <mxCell id="ZFuYuCiWWkNdk68MXFJa-41" value="git diff --cached" style="text;html=1;align=center;verticalAlign=middle;resizable=0;points=[];autosize=1;strokeColor=none;fillColor=none;strokeWidth=4;fontSize=14;fontStyle=1" parent="dhLoyjOVga8Z4-8CUAwj-1" vertex="1">
                    <mxGeometry x="1050" y="126" width="120" height="20" as="geometry"/>
                </mxCell>
                <mxCell id="ZFuYuCiWWkNdk68MXFJa-42" value="" style="endArrow=classic;startArrow=classic;html=1;rounded=1;strokeColor=default;strokeWidth=3;entryX=0.5;entryY=0;entryDx=0;entryDy=0;entryPerimeter=0;" parent="dhLoyjOVga8Z4-8CUAwj-1" target="ZFuYuCiWWkNdk68MXFJa-29" edge="1">
                    <mxGeometry width="50" height="50" relative="1" as="geometry">
                        <mxPoint x="1002.5" y="139.5" as="sourcePoint"/>
                        <mxPoint x="1255" y="116" as="targetPoint"/>
                        <Array as="points">
                            <mxPoint x="1112.5" y="100"/>
                        </Array>
                    </mxGeometry>
                </mxCell>
                <mxCell id="ZFuYuCiWWkNdk68MXFJa-43" value="" style="endArrow=classic;startArrow=classic;html=1;rounded=1;strokeColor=default;strokeWidth=3;entryX=0.01;entryY=0.97;entryDx=0;entryDy=0;entryPerimeter=0;" parent="dhLoyjOVga8Z4-8CUAwj-1" target="ZFuYuCiWWkNdk68MXFJa-29" edge="1">
                    <mxGeometry width="50" height="50" relative="1" as="geometry">
                        <mxPoint x="710" y="70" as="sourcePoint"/>
                        <mxPoint x="952.5" y="36" as="targetPoint"/>
                        <Array as="points">
                            <mxPoint x="930" y="220"/>
                        </Array>
                    </mxGeometry>
                </mxCell>
                <mxCell id="ZFuYuCiWWkNdk68MXFJa-44" value="" style="endArrow=classic;startArrow=classic;html=1;rounded=1;strokeColor=default;strokeWidth=3;entryX=0.5;entryY=0;entryDx=0;entryDy=0;entryPerimeter=0;" parent="dhLoyjOVga8Z4-8CUAwj-1" target="ZFuYuCiWWkNdk68MXFJa-17" edge="1">
                    <mxGeometry width="50" height="50" relative="1" as="geometry">
                        <mxPoint x="1240.0024242424242" y="120" as="sourcePoint"/>
                        <mxPoint x="1478.2600000000002" y="96.5" as="targetPoint"/>
                        <Array as="points">
                            <mxPoint x="1380" y="90"/>
                        </Array>
                    </mxGeometry>
                </mxCell>
                <mxCell id="ZFuYuCiWWkNdk68MXFJa-45" value="git diff c1 c2" style="text;html=1;align=center;verticalAlign=middle;resizable=0;points=[];autosize=1;strokeColor=none;fillColor=none;strokeWidth=4;fontSize=14;fontStyle=1" parent="dhLoyjOVga8Z4-8CUAwj-1" vertex="1">
                    <mxGeometry x="1330" y="110" width="100" height="20" as="geometry"/>
                </mxCell>
            </root>
        </mxGraphModel>
    </diagram>
    <diagram id="KCDCHHoUplwL26HV1-yh" name="cherry-pick">
        <mxGraphModel dx="1978" dy="686" grid="1" gridSize="10" guides="1" tooltips="1" connect="1" arrows="1" fold="1" page="0" pageScale="1" pageWidth="850" pageHeight="1100" math="0" shadow="0">
            <root>
                <mxCell id="rkHLoNrLefgXAo_RDNAn-0"/>
                <mxCell id="rkHLoNrLefgXAo_RDNAn-1" parent="rkHLoNrLefgXAo_RDNAn-0"/>
                <mxCell id="-_y4ev3KlWlXULFz9eSr-9" value="" style="edgeStyle=orthogonalEdgeStyle;rounded=0;orthogonalLoop=1;jettySize=auto;html=1;endArrow=none;endFill=0;" edge="1" parent="rkHLoNrLefgXAo_RDNAn-1" source="-_y4ev3KlWlXULFz9eSr-0" target="-_y4ev3KlWlXULFz9eSr-1">
                    <mxGeometry relative="1" as="geometry"/>
                </mxCell>
                <mxCell id="-_y4ev3KlWlXULFz9eSr-0" value="A" style="ellipse;whiteSpace=wrap;html=1;aspect=fixed;fontSize=24;fillColor=#76608a;fontColor=#ffffff;strokeColor=none;" vertex="1" parent="rkHLoNrLefgXAo_RDNAn-1">
                    <mxGeometry x="-400" y="200" width="40" height="40" as="geometry"/>
                </mxCell>
                <mxCell id="-_y4ev3KlWlXULFz9eSr-10" value="" style="edgeStyle=orthogonalEdgeStyle;rounded=0;orthogonalLoop=1;jettySize=auto;html=1;endArrow=none;endFill=0;" edge="1" parent="rkHLoNrLefgXAo_RDNAn-1" source="-_y4ev3KlWlXULFz9eSr-1" target="-_y4ev3KlWlXULFz9eSr-2">
                    <mxGeometry relative="1" as="geometry"/>
                </mxCell>
                <mxCell id="-_y4ev3KlWlXULFz9eSr-12" style="rounded=0;orthogonalLoop=1;jettySize=auto;html=1;entryX=0.265;entryY=0.046;entryDx=0;entryDy=0;endArrow=none;endFill=0;entryPerimeter=0;" edge="1" parent="rkHLoNrLefgXAo_RDNAn-1" source="-_y4ev3KlWlXULFz9eSr-1" target="-_y4ev3KlWlXULFz9eSr-4">
                    <mxGeometry relative="1" as="geometry"/>
                </mxCell>
                <mxCell id="-_y4ev3KlWlXULFz9eSr-1" value="B" style="ellipse;whiteSpace=wrap;html=1;aspect=fixed;fontSize=24;fillColor=#76608a;fontColor=#ffffff;strokeColor=none;" vertex="1" parent="rkHLoNrLefgXAo_RDNAn-1">
                    <mxGeometry x="-320" y="200" width="40" height="40" as="geometry"/>
                </mxCell>
                <mxCell id="-_y4ev3KlWlXULFz9eSr-11" value="" style="edgeStyle=orthogonalEdgeStyle;rounded=0;orthogonalLoop=1;jettySize=auto;html=1;endArrow=none;endFill=0;" edge="1" parent="rkHLoNrLefgXAo_RDNAn-1" source="-_y4ev3KlWlXULFz9eSr-2" target="-_y4ev3KlWlXULFz9eSr-3">
                    <mxGeometry relative="1" as="geometry"/>
                </mxCell>
                <mxCell id="-_y4ev3KlWlXULFz9eSr-2" value="C" style="ellipse;whiteSpace=wrap;html=1;aspect=fixed;fontSize=24;fillColor=#76608a;fontColor=#ffffff;strokeColor=none;" vertex="1" parent="rkHLoNrLefgXAo_RDNAn-1">
                    <mxGeometry x="-240" y="200" width="40" height="40" as="geometry"/>
                </mxCell>
                <mxCell id="-_y4ev3KlWlXULFz9eSr-3" value="D" style="ellipse;whiteSpace=wrap;html=1;aspect=fixed;fontSize=24;fillColor=#76608a;fontColor=#ffffff;strokeColor=none;" vertex="1" parent="rkHLoNrLefgXAo_RDNAn-1">
                    <mxGeometry x="-160" y="200" width="40" height="40" as="geometry"/>
                </mxCell>
                <mxCell id="-_y4ev3KlWlXULFz9eSr-13" value="" style="edgeStyle=none;rounded=0;orthogonalLoop=1;jettySize=auto;html=1;endArrow=none;endFill=0;" edge="1" parent="rkHLoNrLefgXAo_RDNAn-1" source="-_y4ev3KlWlXULFz9eSr-4" target="-_y4ev3KlWlXULFz9eSr-5">
                    <mxGeometry relative="1" as="geometry"/>
                </mxCell>
                <mxCell id="-_y4ev3KlWlXULFz9eSr-4" value="V" style="ellipse;whiteSpace=wrap;html=1;aspect=fixed;fontSize=24;fillColor=#76608a;fontColor=#ffffff;strokeColor=none;" vertex="1" parent="rkHLoNrLefgXAo_RDNAn-1">
                    <mxGeometry x="-280" y="280" width="40" height="40" as="geometry"/>
                </mxCell>
                <mxCell id="-_y4ev3KlWlXULFz9eSr-14" value="" style="edgeStyle=none;rounded=0;orthogonalLoop=1;jettySize=auto;html=1;endArrow=none;endFill=0;" edge="1" parent="rkHLoNrLefgXAo_RDNAn-1" source="-_y4ev3KlWlXULFz9eSr-5" target="-_y4ev3KlWlXULFz9eSr-6">
                    <mxGeometry relative="1" as="geometry"/>
                </mxCell>
                <mxCell id="-_y4ev3KlWlXULFz9eSr-5" value="W" style="ellipse;whiteSpace=wrap;html=1;aspect=fixed;fontSize=24;fillColor=#76608a;fontColor=#ffffff;strokeColor=none;" vertex="1" parent="rkHLoNrLefgXAo_RDNAn-1">
                    <mxGeometry x="-200" y="280" width="40" height="40" as="geometry"/>
                </mxCell>
                <mxCell id="-_y4ev3KlWlXULFz9eSr-15" value="" style="edgeStyle=none;rounded=0;orthogonalLoop=1;jettySize=auto;html=1;endArrow=none;endFill=0;" edge="1" parent="rkHLoNrLefgXAo_RDNAn-1" source="-_y4ev3KlWlXULFz9eSr-6" target="-_y4ev3KlWlXULFz9eSr-7">
                    <mxGeometry relative="1" as="geometry"/>
                </mxCell>
                <mxCell id="-_y4ev3KlWlXULFz9eSr-6" value="X" style="ellipse;whiteSpace=wrap;html=1;aspect=fixed;fontSize=24;fillColor=#76608a;fontColor=#ffffff;strokeColor=none;" vertex="1" parent="rkHLoNrLefgXAo_RDNAn-1">
                    <mxGeometry x="-120" y="280" width="40" height="40" as="geometry"/>
                </mxCell>
                <mxCell id="-_y4ev3KlWlXULFz9eSr-16" value="" style="edgeStyle=none;rounded=0;orthogonalLoop=1;jettySize=auto;html=1;endArrow=none;endFill=0;" edge="1" parent="rkHLoNrLefgXAo_RDNAn-1" source="-_y4ev3KlWlXULFz9eSr-7" target="-_y4ev3KlWlXULFz9eSr-8">
                    <mxGeometry relative="1" as="geometry"/>
                </mxCell>
                <mxCell id="-_y4ev3KlWlXULFz9eSr-7" value="Y" style="ellipse;whiteSpace=wrap;html=1;aspect=fixed;fontSize=24;fillColor=#76608a;fontColor=#ffffff;strokeColor=none;" vertex="1" parent="rkHLoNrLefgXAo_RDNAn-1">
                    <mxGeometry x="-40" y="280" width="40" height="40" as="geometry"/>
                </mxCell>
                <mxCell id="-_y4ev3KlWlXULFz9eSr-8" value="Z" style="ellipse;whiteSpace=wrap;html=1;aspect=fixed;fontSize=24;fillColor=#76608a;fontColor=#ffffff;strokeColor=none;" vertex="1" parent="rkHLoNrLefgXAo_RDNAn-1">
                    <mxGeometry x="40" y="280" width="40" height="40" as="geometry"/>
                </mxCell>
                <mxCell id="-_y4ev3KlWlXULFz9eSr-17" value="master" style="text;html=1;align=left;verticalAlign=middle;resizable=0;points=[];autosize=1;strokeColor=none;fillColor=none;fontStyle=1;fontSize=14;" vertex="1" parent="rkHLoNrLefgXAo_RDNAn-1">
                    <mxGeometry x="120" y="210" width="60" height="20" as="geometry"/>
                </mxCell>
                <mxCell id="-_y4ev3KlWlXULFz9eSr-18" value="dev" style="text;html=1;align=left;verticalAlign=middle;resizable=0;points=[];autosize=1;strokeColor=none;fillColor=none;fontStyle=1;fontSize=14;" vertex="1" parent="rkHLoNrLefgXAo_RDNAn-1">
                    <mxGeometry x="120" y="290" width="40" height="20" as="geometry"/>
                </mxCell>
                <mxCell id="-_y4ev3KlWlXULFz9eSr-19" value="" style="edgeStyle=orthogonalEdgeStyle;rounded=0;orthogonalLoop=1;jettySize=auto;html=1;endArrow=none;endFill=0;" edge="1" parent="rkHLoNrLefgXAo_RDNAn-1" source="-_y4ev3KlWlXULFz9eSr-20" target="-_y4ev3KlWlXULFz9eSr-23">
                    <mxGeometry relative="1" as="geometry"/>
                </mxCell>
                <mxCell id="-_y4ev3KlWlXULFz9eSr-20" value="A" style="ellipse;whiteSpace=wrap;html=1;aspect=fixed;fontSize=24;fillColor=#76608a;fontColor=#ffffff;strokeColor=none;" vertex="1" parent="rkHLoNrLefgXAo_RDNAn-1">
                    <mxGeometry x="-400" y="480" width="40" height="40" as="geometry"/>
                </mxCell>
                <mxCell id="-_y4ev3KlWlXULFz9eSr-21" value="" style="edgeStyle=orthogonalEdgeStyle;rounded=0;orthogonalLoop=1;jettySize=auto;html=1;endArrow=none;endFill=0;" edge="1" parent="rkHLoNrLefgXAo_RDNAn-1" source="-_y4ev3KlWlXULFz9eSr-23" target="-_y4ev3KlWlXULFz9eSr-25">
                    <mxGeometry relative="1" as="geometry"/>
                </mxCell>
                <mxCell id="-_y4ev3KlWlXULFz9eSr-22" style="rounded=0;orthogonalLoop=1;jettySize=auto;html=1;entryX=0.265;entryY=0.046;entryDx=0;entryDy=0;endArrow=none;endFill=0;entryPerimeter=0;" edge="1" parent="rkHLoNrLefgXAo_RDNAn-1" source="-_y4ev3KlWlXULFz9eSr-23" target="-_y4ev3KlWlXULFz9eSr-28">
                    <mxGeometry relative="1" as="geometry"/>
                </mxCell>
                <mxCell id="-_y4ev3KlWlXULFz9eSr-23" value="B" style="ellipse;whiteSpace=wrap;html=1;aspect=fixed;fontSize=24;fillColor=#76608a;fontColor=#ffffff;strokeColor=none;" vertex="1" parent="rkHLoNrLefgXAo_RDNAn-1">
                    <mxGeometry x="-320" y="480" width="40" height="40" as="geometry"/>
                </mxCell>
                <mxCell id="-_y4ev3KlWlXULFz9eSr-24" value="" style="edgeStyle=orthogonalEdgeStyle;rounded=0;orthogonalLoop=1;jettySize=auto;html=1;endArrow=none;endFill=0;" edge="1" parent="rkHLoNrLefgXAo_RDNAn-1" source="-_y4ev3KlWlXULFz9eSr-25" target="-_y4ev3KlWlXULFz9eSr-26">
                    <mxGeometry relative="1" as="geometry"/>
                </mxCell>
                <mxCell id="-_y4ev3KlWlXULFz9eSr-25" value="C" style="ellipse;whiteSpace=wrap;html=1;aspect=fixed;fontSize=24;fillColor=#76608a;fontColor=#ffffff;strokeColor=none;" vertex="1" parent="rkHLoNrLefgXAo_RDNAn-1">
                    <mxGeometry x="-240" y="480" width="40" height="40" as="geometry"/>
                </mxCell>
                <mxCell id="-_y4ev3KlWlXULFz9eSr-42" value="" style="edgeStyle=none;rounded=0;orthogonalLoop=1;jettySize=auto;html=1;fontSize=14;endArrow=none;endFill=0;" edge="1" parent="rkHLoNrLefgXAo_RDNAn-1" source="-_y4ev3KlWlXULFz9eSr-26" target="-_y4ev3KlWlXULFz9eSr-38">
                    <mxGeometry relative="1" as="geometry"/>
                </mxCell>
                <mxCell id="-_y4ev3KlWlXULFz9eSr-26" value="D" style="ellipse;whiteSpace=wrap;html=1;aspect=fixed;fontSize=24;fillColor=#76608a;fontColor=#ffffff;strokeColor=none;" vertex="1" parent="rkHLoNrLefgXAo_RDNAn-1">
                    <mxGeometry x="-160" y="480" width="40" height="40" as="geometry"/>
                </mxCell>
                <mxCell id="-_y4ev3KlWlXULFz9eSr-27" value="" style="edgeStyle=none;rounded=0;orthogonalLoop=1;jettySize=auto;html=1;endArrow=none;endFill=0;" edge="1" parent="rkHLoNrLefgXAo_RDNAn-1" source="-_y4ev3KlWlXULFz9eSr-28" target="-_y4ev3KlWlXULFz9eSr-30">
                    <mxGeometry relative="1" as="geometry"/>
                </mxCell>
                <mxCell id="-_y4ev3KlWlXULFz9eSr-28" value="V" style="ellipse;whiteSpace=wrap;html=1;aspect=fixed;fontSize=24;fillColor=#76608a;fontColor=#ffffff;strokeColor=none;" vertex="1" parent="rkHLoNrLefgXAo_RDNAn-1">
                    <mxGeometry x="-280" y="560" width="40" height="40" as="geometry"/>
                </mxCell>
                <mxCell id="-_y4ev3KlWlXULFz9eSr-29" value="" style="edgeStyle=none;rounded=0;orthogonalLoop=1;jettySize=auto;html=1;endArrow=none;endFill=0;" edge="1" parent="rkHLoNrLefgXAo_RDNAn-1" source="-_y4ev3KlWlXULFz9eSr-30" target="-_y4ev3KlWlXULFz9eSr-32">
                    <mxGeometry relative="1" as="geometry"/>
                </mxCell>
                <mxCell id="-_y4ev3KlWlXULFz9eSr-30" value="W" style="ellipse;whiteSpace=wrap;html=1;aspect=fixed;fontSize=24;fillColor=#76608a;fontColor=#ffffff;strokeColor=none;" vertex="1" parent="rkHLoNrLefgXAo_RDNAn-1">
                    <mxGeometry x="-200" y="560" width="40" height="40" as="geometry"/>
                </mxCell>
                <mxCell id="-_y4ev3KlWlXULFz9eSr-31" value="" style="edgeStyle=none;rounded=0;orthogonalLoop=1;jettySize=auto;html=1;endArrow=none;endFill=0;" edge="1" parent="rkHLoNrLefgXAo_RDNAn-1" source="-_y4ev3KlWlXULFz9eSr-32" target="-_y4ev3KlWlXULFz9eSr-34">
                    <mxGeometry relative="1" as="geometry"/>
                </mxCell>
                <mxCell id="-_y4ev3KlWlXULFz9eSr-32" value="X" style="ellipse;whiteSpace=wrap;html=1;aspect=fixed;fontSize=24;fillColor=#76608a;fontColor=#ffffff;strokeColor=none;" vertex="1" parent="rkHLoNrLefgXAo_RDNAn-1">
                    <mxGeometry x="-120" y="560" width="40" height="40" as="geometry"/>
                </mxCell>
                <mxCell id="-_y4ev3KlWlXULFz9eSr-33" value="" style="edgeStyle=none;rounded=0;orthogonalLoop=1;jettySize=auto;html=1;endArrow=none;endFill=0;" edge="1" parent="rkHLoNrLefgXAo_RDNAn-1" source="-_y4ev3KlWlXULFz9eSr-34" target="-_y4ev3KlWlXULFz9eSr-35">
                    <mxGeometry relative="1" as="geometry"/>
                </mxCell>
                <mxCell id="-_y4ev3KlWlXULFz9eSr-34" value="Y" style="ellipse;whiteSpace=wrap;html=1;aspect=fixed;fontSize=24;fillColor=#76608a;fontColor=#ffffff;strokeColor=none;" vertex="1" parent="rkHLoNrLefgXAo_RDNAn-1">
                    <mxGeometry x="-40" y="560" width="40" height="40" as="geometry"/>
                </mxCell>
                <mxCell id="-_y4ev3KlWlXULFz9eSr-35" value="Z" style="ellipse;whiteSpace=wrap;html=1;aspect=fixed;fontSize=24;fillColor=#76608a;fontColor=#ffffff;strokeColor=none;" vertex="1" parent="rkHLoNrLefgXAo_RDNAn-1">
                    <mxGeometry x="40" y="560" width="40" height="40" as="geometry"/>
                </mxCell>
                <mxCell id="-_y4ev3KlWlXULFz9eSr-36" value="master" style="text;html=1;align=left;verticalAlign=middle;resizable=0;points=[];autosize=1;strokeColor=none;fillColor=none;fontStyle=1;fontSize=14;" vertex="1" parent="rkHLoNrLefgXAo_RDNAn-1">
                    <mxGeometry x="240" y="490" width="60" height="20" as="geometry"/>
                </mxCell>
                <mxCell id="-_y4ev3KlWlXULFz9eSr-37" value="dev" style="text;html=1;align=left;verticalAlign=middle;resizable=0;points=[];autosize=1;strokeColor=none;fillColor=none;fontStyle=1;fontSize=14;" vertex="1" parent="rkHLoNrLefgXAo_RDNAn-1">
                    <mxGeometry x="240" y="570" width="40" height="20" as="geometry"/>
                </mxCell>
                <mxCell id="-_y4ev3KlWlXULFz9eSr-43" value="" style="edgeStyle=none;rounded=0;orthogonalLoop=1;jettySize=auto;html=1;fontSize=14;endArrow=none;endFill=0;" edge="1" parent="rkHLoNrLefgXAo_RDNAn-1" source="-_y4ev3KlWlXULFz9eSr-38" target="-_y4ev3KlWlXULFz9eSr-39">
                    <mxGeometry relative="1" as="geometry"/>
                </mxCell>
                <mxCell id="-_y4ev3KlWlXULFz9eSr-38" value="Y'" style="ellipse;whiteSpace=wrap;html=1;aspect=fixed;fontSize=24;fillColor=#76608a;fontColor=#ffffff;strokeColor=none;" vertex="1" parent="rkHLoNrLefgXAo_RDNAn-1">
                    <mxGeometry x="-80" y="480" width="40" height="40" as="geometry"/>
                </mxCell>
                <mxCell id="-_y4ev3KlWlXULFz9eSr-44" value="" style="edgeStyle=none;rounded=0;orthogonalLoop=1;jettySize=auto;html=1;fontSize=14;endArrow=none;endFill=0;" edge="1" parent="rkHLoNrLefgXAo_RDNAn-1" source="-_y4ev3KlWlXULFz9eSr-39" target="-_y4ev3KlWlXULFz9eSr-40">
                    <mxGeometry relative="1" as="geometry"/>
                </mxCell>
                <mxCell id="-_y4ev3KlWlXULFz9eSr-39" value="W'" style="ellipse;whiteSpace=wrap;html=1;aspect=fixed;fontSize=24;fillColor=#76608a;fontColor=#ffffff;strokeColor=none;" vertex="1" parent="rkHLoNrLefgXAo_RDNAn-1">
                    <mxGeometry y="480" width="40" height="40" as="geometry"/>
                </mxCell>
                <mxCell id="-_y4ev3KlWlXULFz9eSr-45" value="" style="edgeStyle=none;rounded=0;orthogonalLoop=1;jettySize=auto;html=1;fontSize=14;endArrow=none;endFill=0;" edge="1" parent="rkHLoNrLefgXAo_RDNAn-1" source="-_y4ev3KlWlXULFz9eSr-40" target="-_y4ev3KlWlXULFz9eSr-41">
                    <mxGeometry relative="1" as="geometry"/>
                </mxCell>
                <mxCell id="-_y4ev3KlWlXULFz9eSr-40" value="X'" style="ellipse;whiteSpace=wrap;html=1;aspect=fixed;fontSize=24;fillColor=#76608a;fontColor=#ffffff;strokeColor=none;" vertex="1" parent="rkHLoNrLefgXAo_RDNAn-1">
                    <mxGeometry x="80" y="480" width="40" height="40" as="geometry"/>
                </mxCell>
                <mxCell id="-_y4ev3KlWlXULFz9eSr-41" value="Z'" style="ellipse;whiteSpace=wrap;html=1;aspect=fixed;fontSize=24;fillColor=#76608a;fontColor=#ffffff;strokeColor=none;" vertex="1" parent="rkHLoNrLefgXAo_RDNAn-1">
                    <mxGeometry x="161" y="480" width="40" height="40" as="geometry"/>
                </mxCell>
                <mxCell id="-_y4ev3KlWlXULFz9eSr-46" value="&lt;pre style=&quot;box-sizing: border-box ; border-width: 0px ; border-style: solid ; border-color: rgb(229 , 231 , 235) ; font-family: &amp;quot;ibm plex mono&amp;quot; , , &amp;quot;menlo&amp;quot; , &amp;quot;monaco&amp;quot; , &amp;quot;consolas&amp;quot; , &amp;quot;courier new&amp;quot; , monospace ; margin: 0px ; z-index: 1 ; color: rgb(57 , 58 , 52) ; font-size: 13.6px ; font-style: normal ; font-weight: 400 ; letter-spacing: normal ; text-align: left ; text-indent: 0px ; text-transform: none ; word-spacing: 0px&quot;&gt;&lt;code style=&quot;box-sizing: border-box ; border-width: 0px ; border-style: solid ; border-color: rgb(229 , 231 , 235)&quot;&gt;&lt;span class=&quot;token comment&quot; style=&quot;box-sizing: border-box ; border-width: 0px ; border-style: solid ; border-color: rgb(229 , 231 , 235)&quot;&gt;monaco&lt;/span&gt;&lt;/code&gt;&lt;/pre&gt;" style="text;whiteSpace=wrap;html=1;fontSize=14;" vertex="1" parent="rkHLoNrLefgXAo_RDNAn-1">
                    <mxGeometry x="-730" y="80" width="70" height="30" as="geometry"/>
                </mxCell>
            </root>
        </mxGraphModel>
    </diagram>
    <diagram name="revert" id="01dF6Dr0ojWhZdJR5-8D">
        <mxGraphModel dx="2118" dy="1001" grid="1" gridSize="10" guides="1" tooltips="1" connect="1" arrows="1" fold="1" page="0" pageScale="1" pageWidth="850" pageHeight="1100" math="0" shadow="0">
            <root>
                <mxCell id="mvs6B0ZLs1o3kVYGckzh-0"/>
                <mxCell id="mvs6B0ZLs1o3kVYGckzh-1" parent="mvs6B0ZLs1o3kVYGckzh-0"/>
                <mxCell id="mvs6B0ZLs1o3kVYGckzh-2" value="" style="edgeStyle=orthogonalEdgeStyle;rounded=0;orthogonalLoop=1;jettySize=auto;html=1;endArrow=none;endFill=0;" edge="1" parent="mvs6B0ZLs1o3kVYGckzh-1" source="mvs6B0ZLs1o3kVYGckzh-3" target="mvs6B0ZLs1o3kVYGckzh-6">
                    <mxGeometry relative="1" as="geometry"/>
                </mxCell>
                <mxCell id="mvs6B0ZLs1o3kVYGckzh-3" value="A" style="ellipse;whiteSpace=wrap;html=1;aspect=fixed;fontSize=24;fillColor=#76608a;fontColor=#ffffff;strokeColor=none;" vertex="1" parent="mvs6B0ZLs1o3kVYGckzh-1">
                    <mxGeometry x="-400" y="200" width="40" height="40" as="geometry"/>
                </mxCell>
                <mxCell id="mvs6B0ZLs1o3kVYGckzh-4" value="" style="edgeStyle=orthogonalEdgeStyle;rounded=0;orthogonalLoop=1;jettySize=auto;html=1;endArrow=none;endFill=0;" edge="1" parent="mvs6B0ZLs1o3kVYGckzh-1" source="mvs6B0ZLs1o3kVYGckzh-6" target="mvs6B0ZLs1o3kVYGckzh-8">
                    <mxGeometry relative="1" as="geometry"/>
                </mxCell>
                <mxCell id="mvs6B0ZLs1o3kVYGckzh-6" value="B" style="ellipse;whiteSpace=wrap;html=1;aspect=fixed;fontSize=24;fillColor=#76608a;fontColor=#ffffff;strokeColor=none;" vertex="1" parent="mvs6B0ZLs1o3kVYGckzh-1">
                    <mxGeometry x="-320" y="200" width="40" height="40" as="geometry"/>
                </mxCell>
                <mxCell id="mvs6B0ZLs1o3kVYGckzh-7" value="" style="edgeStyle=orthogonalEdgeStyle;rounded=0;orthogonalLoop=1;jettySize=auto;html=1;endArrow=none;endFill=0;" edge="1" parent="mvs6B0ZLs1o3kVYGckzh-1" source="mvs6B0ZLs1o3kVYGckzh-8" target="mvs6B0ZLs1o3kVYGckzh-9">
                    <mxGeometry relative="1" as="geometry"/>
                </mxCell>
                <mxCell id="mvs6B0ZLs1o3kVYGckzh-8" value="C" style="ellipse;whiteSpace=wrap;html=1;aspect=fixed;fontSize=24;fillColor=#76608a;fontColor=#ffffff;strokeColor=none;" vertex="1" parent="mvs6B0ZLs1o3kVYGckzh-1">
                    <mxGeometry x="-240" y="200" width="40" height="40" as="geometry"/>
                </mxCell>
                <mxCell id="mvs6B0ZLs1o3kVYGckzh-49" value="" style="edgeStyle=none;rounded=0;orthogonalLoop=1;jettySize=auto;html=1;fontSize=14;endArrow=none;endFill=0;" edge="1" parent="mvs6B0ZLs1o3kVYGckzh-1" source="mvs6B0ZLs1o3kVYGckzh-9" target="mvs6B0ZLs1o3kVYGckzh-11">
                    <mxGeometry relative="1" as="geometry"/>
                </mxCell>
                <mxCell id="mvs6B0ZLs1o3kVYGckzh-9" value="D" style="ellipse;whiteSpace=wrap;html=1;aspect=fixed;fontSize=24;fillColor=#76608a;fontColor=#ffffff;strokeColor=none;" vertex="1" parent="mvs6B0ZLs1o3kVYGckzh-1">
                    <mxGeometry x="-160" y="200" width="40" height="40" as="geometry"/>
                </mxCell>
                <mxCell id="mvs6B0ZLs1o3kVYGckzh-11" value="E" style="ellipse;whiteSpace=wrap;html=1;aspect=fixed;fontSize=24;fillColor=#76608a;fontColor=#ffffff;strokeColor=none;" vertex="1" parent="mvs6B0ZLs1o3kVYGckzh-1">
                    <mxGeometry x="-80" y="200" width="40" height="40" as="geometry"/>
                </mxCell>
                <mxCell id="mvs6B0ZLs1o3kVYGckzh-19" value="master" style="text;html=1;align=left;verticalAlign=middle;resizable=0;points=[];autosize=1;strokeColor=none;fillColor=none;fontStyle=1;fontSize=14;" vertex="1" parent="mvs6B0ZLs1o3kVYGckzh-1">
                    <mxGeometry y="210" width="60" height="20" as="geometry"/>
                </mxCell>
                <mxCell id="mvs6B0ZLs1o3kVYGckzh-52" value="" style="edgeStyle=orthogonalEdgeStyle;rounded=0;orthogonalLoop=1;jettySize=auto;html=1;endArrow=none;endFill=0;" edge="1" parent="mvs6B0ZLs1o3kVYGckzh-1" source="mvs6B0ZLs1o3kVYGckzh-53" target="mvs6B0ZLs1o3kVYGckzh-55">
                    <mxGeometry relative="1" as="geometry"/>
                </mxCell>
                <mxCell id="mvs6B0ZLs1o3kVYGckzh-53" value="A" style="ellipse;whiteSpace=wrap;html=1;aspect=fixed;fontSize=24;fillColor=#76608a;fontColor=#ffffff;strokeColor=none;" vertex="1" parent="mvs6B0ZLs1o3kVYGckzh-1">
                    <mxGeometry x="-400" y="280" width="40" height="40" as="geometry"/>
                </mxCell>
                <mxCell id="mvs6B0ZLs1o3kVYGckzh-54" value="" style="edgeStyle=orthogonalEdgeStyle;rounded=0;orthogonalLoop=1;jettySize=auto;html=1;endArrow=none;endFill=0;" edge="1" parent="mvs6B0ZLs1o3kVYGckzh-1" source="mvs6B0ZLs1o3kVYGckzh-55" target="mvs6B0ZLs1o3kVYGckzh-57">
                    <mxGeometry relative="1" as="geometry"/>
                </mxCell>
                <mxCell id="mvs6B0ZLs1o3kVYGckzh-55" value="B" style="ellipse;whiteSpace=wrap;html=1;aspect=fixed;fontSize=24;fillColor=#76608a;fontColor=#ffffff;strokeColor=none;" vertex="1" parent="mvs6B0ZLs1o3kVYGckzh-1">
                    <mxGeometry x="-320" y="280" width="40" height="40" as="geometry"/>
                </mxCell>
                <mxCell id="mvs6B0ZLs1o3kVYGckzh-56" value="" style="edgeStyle=orthogonalEdgeStyle;rounded=0;orthogonalLoop=1;jettySize=auto;html=1;endArrow=none;endFill=0;" edge="1" parent="mvs6B0ZLs1o3kVYGckzh-1" source="mvs6B0ZLs1o3kVYGckzh-57" target="mvs6B0ZLs1o3kVYGckzh-59">
                    <mxGeometry relative="1" as="geometry"/>
                </mxCell>
                <mxCell id="mvs6B0ZLs1o3kVYGckzh-57" value="C" style="ellipse;whiteSpace=wrap;html=1;aspect=fixed;fontSize=24;fillColor=#76608a;fontColor=#ffffff;strokeColor=none;" vertex="1" parent="mvs6B0ZLs1o3kVYGckzh-1">
                    <mxGeometry x="-240" y="280" width="40" height="40" as="geometry"/>
                </mxCell>
                <mxCell id="mvs6B0ZLs1o3kVYGckzh-58" value="" style="edgeStyle=none;rounded=0;orthogonalLoop=1;jettySize=auto;html=1;fontSize=14;endArrow=none;endFill=0;" edge="1" parent="mvs6B0ZLs1o3kVYGckzh-1" source="mvs6B0ZLs1o3kVYGckzh-59" target="mvs6B0ZLs1o3kVYGckzh-60">
                    <mxGeometry relative="1" as="geometry"/>
                </mxCell>
                <mxCell id="mvs6B0ZLs1o3kVYGckzh-59" value="D" style="ellipse;whiteSpace=wrap;html=1;aspect=fixed;fontSize=24;fillColor=#76608a;fontColor=#ffffff;strokeColor=none;" vertex="1" parent="mvs6B0ZLs1o3kVYGckzh-1">
                    <mxGeometry x="-160" y="280" width="40" height="40" as="geometry"/>
                </mxCell>
                <mxCell id="mvs6B0ZLs1o3kVYGckzh-63" value="" style="edgeStyle=none;rounded=0;orthogonalLoop=1;jettySize=auto;html=1;fontSize=14;endArrow=none;endFill=0;" edge="1" parent="mvs6B0ZLs1o3kVYGckzh-1" source="mvs6B0ZLs1o3kVYGckzh-60" target="mvs6B0ZLs1o3kVYGckzh-62">
                    <mxGeometry relative="1" as="geometry"/>
                </mxCell>
                <mxCell id="mvs6B0ZLs1o3kVYGckzh-60" value="E" style="ellipse;whiteSpace=wrap;html=1;aspect=fixed;fontSize=24;fillColor=#76608a;fontColor=#ffffff;strokeColor=none;" vertex="1" parent="mvs6B0ZLs1o3kVYGckzh-1">
                    <mxGeometry x="-80" y="280" width="40" height="40" as="geometry"/>
                </mxCell>
                <mxCell id="mvs6B0ZLs1o3kVYGckzh-61" value="master" style="text;html=1;align=left;verticalAlign=middle;resizable=0;points=[];autosize=1;strokeColor=none;fillColor=none;fontStyle=1;fontSize=14;" vertex="1" parent="mvs6B0ZLs1o3kVYGckzh-1">
                    <mxGeometry x="80" y="290" width="60" height="20" as="geometry"/>
                </mxCell>
                <mxCell id="mvs6B0ZLs1o3kVYGckzh-62" value="C'" style="ellipse;whiteSpace=wrap;html=1;aspect=fixed;fontSize=24;fillColor=#76608a;fontColor=#ffffff;strokeColor=none;" vertex="1" parent="mvs6B0ZLs1o3kVYGckzh-1">
                    <mxGeometry y="280" width="40" height="40" as="geometry"/>
                </mxCell>
            </root>
        </mxGraphModel>
    </diagram>
    <diagram name="rebase" id="CQIyOutUncbBHtrA5jWl">
        <mxGraphModel dx="1225" dy="480" grid="1" gridSize="10" guides="1" tooltips="1" connect="1" arrows="1" fold="1" page="0" pageScale="1" pageWidth="850" pageHeight="1100" math="0" shadow="0">
            <root>
                <mxCell id="5FHe3o3nRBXMT0IyZtqk-0"/>
                <mxCell id="5FHe3o3nRBXMT0IyZtqk-1" parent="5FHe3o3nRBXMT0IyZtqk-0"/>
                <mxCell id="5FHe3o3nRBXMT0IyZtqk-2" value="" style="edgeStyle=orthogonalEdgeStyle;rounded=0;orthogonalLoop=1;jettySize=auto;html=1;endArrow=none;endFill=0;" edge="1" parent="5FHe3o3nRBXMT0IyZtqk-1" source="5FHe3o3nRBXMT0IyZtqk-3" target="5FHe3o3nRBXMT0IyZtqk-6">
                    <mxGeometry relative="1" as="geometry"/>
                </mxCell>
                <mxCell id="5FHe3o3nRBXMT0IyZtqk-3" value="A" style="ellipse;whiteSpace=wrap;html=1;aspect=fixed;fontSize=24;fillColor=#76608a;fontColor=#ffffff;strokeColor=none;" vertex="1" parent="5FHe3o3nRBXMT0IyZtqk-1">
                    <mxGeometry x="-400" y="200" width="40" height="40" as="geometry"/>
                </mxCell>
                <mxCell id="5FHe3o3nRBXMT0IyZtqk-4" value="" style="edgeStyle=orthogonalEdgeStyle;rounded=0;orthogonalLoop=1;jettySize=auto;html=1;endArrow=none;endFill=0;" edge="1" parent="5FHe3o3nRBXMT0IyZtqk-1" source="5FHe3o3nRBXMT0IyZtqk-6" target="5FHe3o3nRBXMT0IyZtqk-8">
                    <mxGeometry relative="1" as="geometry"/>
                </mxCell>
                <mxCell id="5FHe3o3nRBXMT0IyZtqk-5" style="rounded=0;orthogonalLoop=1;jettySize=auto;html=1;entryX=0.265;entryY=0.046;entryDx=0;entryDy=0;endArrow=none;endFill=0;entryPerimeter=0;" edge="1" parent="5FHe3o3nRBXMT0IyZtqk-1" source="5FHe3o3nRBXMT0IyZtqk-6">
                    <mxGeometry relative="1" as="geometry">
                        <mxPoint x="-269.39999999999986" y="281.8399999999999" as="targetPoint"/>
                    </mxGeometry>
                </mxCell>
                <mxCell id="5FHe3o3nRBXMT0IyZtqk-6" value="B" style="ellipse;whiteSpace=wrap;html=1;aspect=fixed;fontSize=24;fillColor=#76608a;fontColor=#ffffff;strokeColor=none;" vertex="1" parent="5FHe3o3nRBXMT0IyZtqk-1">
                    <mxGeometry x="-320" y="200" width="40" height="40" as="geometry"/>
                </mxCell>
                <mxCell id="5FHe3o3nRBXMT0IyZtqk-7" value="" style="edgeStyle=orthogonalEdgeStyle;rounded=0;orthogonalLoop=1;jettySize=auto;html=1;endArrow=none;endFill=0;" edge="1" parent="5FHe3o3nRBXMT0IyZtqk-1" source="5FHe3o3nRBXMT0IyZtqk-8" target="5FHe3o3nRBXMT0IyZtqk-9">
                    <mxGeometry relative="1" as="geometry"/>
                </mxCell>
                <mxCell id="5FHe3o3nRBXMT0IyZtqk-8" value="C" style="ellipse;whiteSpace=wrap;html=1;aspect=fixed;fontSize=24;fillColor=#76608a;fontColor=#ffffff;strokeColor=none;" vertex="1" parent="5FHe3o3nRBXMT0IyZtqk-1">
                    <mxGeometry x="-240" y="200" width="40" height="40" as="geometry"/>
                </mxCell>
                <mxCell id="IBryeTI6yNf6wbt8Tx08-20" value="" style="edgeStyle=none;rounded=0;orthogonalLoop=1;jettySize=auto;html=1;fontSize=14;endArrow=none;endFill=0;" edge="1" parent="5FHe3o3nRBXMT0IyZtqk-1" source="5FHe3o3nRBXMT0IyZtqk-9" target="IBryeTI6yNf6wbt8Tx08-19">
                    <mxGeometry relative="1" as="geometry"/>
                </mxCell>
                <mxCell id="5FHe3o3nRBXMT0IyZtqk-9" value="D" style="ellipse;whiteSpace=wrap;html=1;aspect=fixed;fontSize=24;fillColor=#76608a;fontColor=#ffffff;strokeColor=none;" vertex="1" parent="5FHe3o3nRBXMT0IyZtqk-1">
                    <mxGeometry x="-160" y="200" width="40" height="40" as="geometry"/>
                </mxCell>
                <mxCell id="5FHe3o3nRBXMT0IyZtqk-12" value="" style="edgeStyle=none;rounded=0;orthogonalLoop=1;jettySize=auto;html=1;endArrow=none;endFill=0;" edge="1" parent="5FHe3o3nRBXMT0IyZtqk-1" source="5FHe3o3nRBXMT0IyZtqk-13" target="5FHe3o3nRBXMT0IyZtqk-15">
                    <mxGeometry relative="1" as="geometry"/>
                </mxCell>
                <mxCell id="5FHe3o3nRBXMT0IyZtqk-13" value="W" style="ellipse;whiteSpace=wrap;html=1;aspect=fixed;fontSize=24;fillColor=#76608a;fontColor=#ffffff;strokeColor=none;" vertex="1" parent="5FHe3o3nRBXMT0IyZtqk-1">
                    <mxGeometry x="-280" y="280" width="40" height="40" as="geometry"/>
                </mxCell>
                <mxCell id="5FHe3o3nRBXMT0IyZtqk-14" value="" style="edgeStyle=none;rounded=0;orthogonalLoop=1;jettySize=auto;html=1;endArrow=none;endFill=0;" edge="1" parent="5FHe3o3nRBXMT0IyZtqk-1" source="5FHe3o3nRBXMT0IyZtqk-15" target="5FHe3o3nRBXMT0IyZtqk-17">
                    <mxGeometry relative="1" as="geometry"/>
                </mxCell>
                <mxCell id="5FHe3o3nRBXMT0IyZtqk-15" value="X" style="ellipse;whiteSpace=wrap;html=1;aspect=fixed;fontSize=24;fillColor=#76608a;fontColor=#ffffff;strokeColor=none;" vertex="1" parent="5FHe3o3nRBXMT0IyZtqk-1">
                    <mxGeometry x="-200" y="280" width="40" height="40" as="geometry"/>
                </mxCell>
                <mxCell id="5FHe3o3nRBXMT0IyZtqk-16" value="" style="edgeStyle=none;rounded=0;orthogonalLoop=1;jettySize=auto;html=1;endArrow=none;endFill=0;" edge="1" parent="5FHe3o3nRBXMT0IyZtqk-1" source="5FHe3o3nRBXMT0IyZtqk-17" target="5FHe3o3nRBXMT0IyZtqk-18">
                    <mxGeometry relative="1" as="geometry"/>
                </mxCell>
                <mxCell id="5FHe3o3nRBXMT0IyZtqk-17" value="Y" style="ellipse;whiteSpace=wrap;html=1;aspect=fixed;fontSize=24;fillColor=#76608a;fontColor=#ffffff;strokeColor=none;" vertex="1" parent="5FHe3o3nRBXMT0IyZtqk-1">
                    <mxGeometry x="-120" y="280" width="40" height="40" as="geometry"/>
                </mxCell>
                <mxCell id="5FHe3o3nRBXMT0IyZtqk-18" value="Z" style="ellipse;whiteSpace=wrap;html=1;aspect=fixed;fontSize=24;fillColor=#76608a;fontColor=#ffffff;strokeColor=none;" vertex="1" parent="5FHe3o3nRBXMT0IyZtqk-1">
                    <mxGeometry x="-40" y="280" width="40" height="40" as="geometry"/>
                </mxCell>
                <mxCell id="5FHe3o3nRBXMT0IyZtqk-19" value="master" style="text;html=1;align=left;verticalAlign=middle;resizable=0;points=[];autosize=1;strokeColor=none;fillColor=none;fontStyle=1;fontSize=14;" vertex="1" parent="5FHe3o3nRBXMT0IyZtqk-1">
                    <mxGeometry x="20.14" y="210" width="60" height="20" as="geometry"/>
                </mxCell>
                <mxCell id="5FHe3o3nRBXMT0IyZtqk-20" value="topic" style="text;html=1;align=left;verticalAlign=middle;resizable=0;points=[];autosize=1;strokeColor=none;fillColor=none;fontStyle=1;fontSize=14;" vertex="1" parent="5FHe3o3nRBXMT0IyZtqk-1">
                    <mxGeometry x="20.14" y="290" width="50" height="20" as="geometry"/>
                </mxCell>
                <mxCell id="IBryeTI6yNf6wbt8Tx08-0" value="" style="edgeStyle=orthogonalEdgeStyle;rounded=0;orthogonalLoop=1;jettySize=auto;html=1;endArrow=none;endFill=0;" edge="1" parent="5FHe3o3nRBXMT0IyZtqk-1" source="IBryeTI6yNf6wbt8Tx08-1" target="IBryeTI6yNf6wbt8Tx08-4">
                    <mxGeometry relative="1" as="geometry"/>
                </mxCell>
                <mxCell id="IBryeTI6yNf6wbt8Tx08-1" value="A" style="ellipse;whiteSpace=wrap;html=1;aspect=fixed;fontSize=24;fillColor=#76608a;fontColor=#ffffff;strokeColor=none;" vertex="1" parent="5FHe3o3nRBXMT0IyZtqk-1">
                    <mxGeometry x="-400" y="400" width="40" height="40" as="geometry"/>
                </mxCell>
                <mxCell id="IBryeTI6yNf6wbt8Tx08-2" value="" style="edgeStyle=orthogonalEdgeStyle;rounded=0;orthogonalLoop=1;jettySize=auto;html=1;endArrow=none;endFill=0;" edge="1" parent="5FHe3o3nRBXMT0IyZtqk-1" source="IBryeTI6yNf6wbt8Tx08-4" target="IBryeTI6yNf6wbt8Tx08-6">
                    <mxGeometry relative="1" as="geometry"/>
                </mxCell>
                <mxCell id="IBryeTI6yNf6wbt8Tx08-3" style="rounded=0;orthogonalLoop=1;jettySize=auto;html=1;entryX=0.265;entryY=0.046;entryDx=0;entryDy=0;endArrow=none;endFill=0;entryPerimeter=0;" edge="1" parent="5FHe3o3nRBXMT0IyZtqk-1">
                    <mxGeometry relative="1" as="geometry">
                        <mxPoint x="-130.9963970395014" y="437.9986514428261" as="sourcePoint"/>
                        <mxPoint x="-109.25999999999988" y="481.9099999999999" as="targetPoint"/>
                    </mxGeometry>
                </mxCell>
                <mxCell id="IBryeTI6yNf6wbt8Tx08-4" value="B" style="ellipse;whiteSpace=wrap;html=1;aspect=fixed;fontSize=24;fillColor=#76608a;fontColor=#ffffff;strokeColor=none;" vertex="1" parent="5FHe3o3nRBXMT0IyZtqk-1">
                    <mxGeometry x="-340" y="400" width="40" height="40" as="geometry"/>
                </mxCell>
                <mxCell id="IBryeTI6yNf6wbt8Tx08-5" value="" style="edgeStyle=orthogonalEdgeStyle;rounded=0;orthogonalLoop=1;jettySize=auto;html=1;endArrow=none;endFill=0;" edge="1" parent="5FHe3o3nRBXMT0IyZtqk-1" source="IBryeTI6yNf6wbt8Tx08-6" target="IBryeTI6yNf6wbt8Tx08-7">
                    <mxGeometry relative="1" as="geometry"/>
                </mxCell>
                <mxCell id="IBryeTI6yNf6wbt8Tx08-6" value="C" style="ellipse;whiteSpace=wrap;html=1;aspect=fixed;fontSize=24;fillColor=#76608a;fontColor=#ffffff;strokeColor=none;" vertex="1" parent="5FHe3o3nRBXMT0IyZtqk-1">
                    <mxGeometry x="-280" y="400" width="40" height="40" as="geometry"/>
                </mxCell>
                <mxCell id="IBryeTI6yNf6wbt8Tx08-22" value="" style="edgeStyle=none;rounded=0;orthogonalLoop=1;jettySize=auto;html=1;fontSize=14;endArrow=none;endFill=0;" edge="1" parent="5FHe3o3nRBXMT0IyZtqk-1" source="IBryeTI6yNf6wbt8Tx08-7" target="IBryeTI6yNf6wbt8Tx08-21">
                    <mxGeometry relative="1" as="geometry"/>
                </mxCell>
                <mxCell id="IBryeTI6yNf6wbt8Tx08-7" value="D" style="ellipse;whiteSpace=wrap;html=1;aspect=fixed;fontSize=24;fillColor=#76608a;fontColor=#ffffff;strokeColor=none;" vertex="1" parent="5FHe3o3nRBXMT0IyZtqk-1">
                    <mxGeometry x="-220" y="400" width="40" height="40" as="geometry"/>
                </mxCell>
                <mxCell id="IBryeTI6yNf6wbt8Tx08-10" value="" style="edgeStyle=none;rounded=0;orthogonalLoop=1;jettySize=auto;html=1;endArrow=none;endFill=0;" edge="1" parent="5FHe3o3nRBXMT0IyZtqk-1" source="IBryeTI6yNf6wbt8Tx08-11" target="IBryeTI6yNf6wbt8Tx08-13">
                    <mxGeometry relative="1" as="geometry"/>
                </mxCell>
                <mxCell id="IBryeTI6yNf6wbt8Tx08-11" value="W'" style="ellipse;whiteSpace=wrap;html=1;aspect=fixed;fontSize=24;fillColor=#76608a;fontColor=#ffffff;strokeColor=none;" vertex="1" parent="5FHe3o3nRBXMT0IyZtqk-1">
                    <mxGeometry x="-119.86000000000001" y="480.07" width="40" height="40" as="geometry"/>
                </mxCell>
                <mxCell id="IBryeTI6yNf6wbt8Tx08-12" value="" style="edgeStyle=none;rounded=0;orthogonalLoop=1;jettySize=auto;html=1;endArrow=none;endFill=0;" edge="1" parent="5FHe3o3nRBXMT0IyZtqk-1" source="IBryeTI6yNf6wbt8Tx08-13" target="IBryeTI6yNf6wbt8Tx08-15">
                    <mxGeometry relative="1" as="geometry"/>
                </mxCell>
                <mxCell id="IBryeTI6yNf6wbt8Tx08-13" value="X'" style="ellipse;whiteSpace=wrap;html=1;aspect=fixed;fontSize=24;fillColor=#76608a;fontColor=#ffffff;strokeColor=none;" vertex="1" parent="5FHe3o3nRBXMT0IyZtqk-1">
                    <mxGeometry x="-60.000000000000014" y="480.07" width="40" height="40" as="geometry"/>
                </mxCell>
                <mxCell id="IBryeTI6yNf6wbt8Tx08-14" value="" style="edgeStyle=none;rounded=0;orthogonalLoop=1;jettySize=auto;html=1;endArrow=none;endFill=0;" edge="1" parent="5FHe3o3nRBXMT0IyZtqk-1" source="IBryeTI6yNf6wbt8Tx08-15" target="IBryeTI6yNf6wbt8Tx08-16">
                    <mxGeometry relative="1" as="geometry"/>
                </mxCell>
                <mxCell id="IBryeTI6yNf6wbt8Tx08-15" value="Y'" style="ellipse;whiteSpace=wrap;html=1;aspect=fixed;fontSize=24;fillColor=#76608a;fontColor=#ffffff;strokeColor=none;" vertex="1" parent="5FHe3o3nRBXMT0IyZtqk-1">
                    <mxGeometry x="-1.4210854715202004e-14" y="480.07" width="40" height="40" as="geometry"/>
                </mxCell>
                <mxCell id="IBryeTI6yNf6wbt8Tx08-16" value="Z'" style="ellipse;whiteSpace=wrap;html=1;aspect=fixed;fontSize=24;fillColor=#76608a;fontColor=#ffffff;strokeColor=none;" vertex="1" parent="5FHe3o3nRBXMT0IyZtqk-1">
                    <mxGeometry x="59.999999999999986" y="480.07" width="40" height="40" as="geometry"/>
                </mxCell>
                <mxCell id="IBryeTI6yNf6wbt8Tx08-17" value="master" style="text;html=1;align=left;verticalAlign=middle;resizable=0;points=[];autosize=1;strokeColor=none;fillColor=none;fontStyle=1;fontSize=14;" vertex="1" parent="5FHe3o3nRBXMT0IyZtqk-1">
                    <mxGeometry x="120" y="410" width="60" height="20" as="geometry"/>
                </mxCell>
                <mxCell id="IBryeTI6yNf6wbt8Tx08-18" value="topic" style="text;html=1;align=left;verticalAlign=middle;resizable=0;points=[];autosize=1;strokeColor=none;fillColor=none;fontStyle=1;fontSize=14;" vertex="1" parent="5FHe3o3nRBXMT0IyZtqk-1">
                    <mxGeometry x="120" y="490.07" width="50" height="20" as="geometry"/>
                </mxCell>
                <mxCell id="IBryeTI6yNf6wbt8Tx08-19" value="E" style="ellipse;whiteSpace=wrap;html=1;aspect=fixed;fontSize=24;fillColor=#76608a;fontColor=#ffffff;strokeColor=none;" vertex="1" parent="5FHe3o3nRBXMT0IyZtqk-1">
                    <mxGeometry x="-80" y="200" width="40" height="40" as="geometry"/>
                </mxCell>
                <mxCell id="IBryeTI6yNf6wbt8Tx08-21" value="E" style="ellipse;whiteSpace=wrap;html=1;aspect=fixed;fontSize=24;fillColor=#76608a;fontColor=#ffffff;strokeColor=none;" vertex="1" parent="5FHe3o3nRBXMT0IyZtqk-1">
                    <mxGeometry x="-160" y="400" width="40" height="40" as="geometry"/>
                </mxCell>
            </root>
        </mxGraphModel>
    </diagram>
</mxfile>